<?xml version="1.0" encoding="UTF-8" standalone="no"?>
<!-- Created with Inkscape (http://www.inkscape.org/) -->

<svg
   width="3.9568419mm"
   height="67.768379mm"
   viewBox="0 0 3.9568419 67.768379"
   version="1.1"
   id="svg5"
   inkscape:version="1.1.2 (0a00cf5339, 2022-02-04)"
   sodipodi:docname="borde_vertical.svg"
   xmlns:inkscape="http://www.inkscape.org/namespaces/inkscape"
   xmlns:sodipodi="http://sodipodi.sourceforge.net/DTD/sodipodi-0.dtd"
   xmlns="http://www.w3.org/2000/svg"
   xmlns:svg="http://www.w3.org/2000/svg">
  <sodipodi:namedview
     id="namedview7"
     pagecolor="#ffffff"
     bordercolor="#666666"
     borderopacity="1.0"
     inkscape:pageshadow="2"
     inkscape:pageopacity="0.40392157"
     inkscape:pagecheckerboard="true"
     inkscape:document-units="mm"
     showgrid="false"
     lock-margins="false"
     fit-margin-top="0"
     fit-margin-left="0"
     fit-margin-right="0"
     fit-margin-bottom="0"
     inkscape:zoom="0.58953958"
     inkscape:cx="-85.660067"
     inkscape:cy="5.0887169"
     inkscape:window-width="1366"
     inkscape:window-height="707"
     inkscape:window-x="0"
     inkscape:window-y="1135"
     inkscape:window-maximized="1"
     inkscape:current-layer="layer1" />
  <defs
     id="defs2" />
  <g
     inkscape:label="Capa 1"
     inkscape:groupmode="layer"
     id="layer1"
     transform="translate(-99.715038,-139.55693)">
    <path
       style="fill:#aa0000;fill-opacity:1;fill-rule:nonzero;stroke:none;stroke-width:0.264583"
       id="path72"
       d="m 102.29096,172.19789 c -0.0871,-0.006 -0.14814,-0.0777 -0.2084,-0.13407 -0.0757,-0.075 -0.11973,-0.16999 -0.15462,-0.26887 -0.0335,-0.0826 -0.0441,-0.16908 -0.0538,-0.25676 -0.009,-0.0911 0.003,-0.18101 0.0316,-0.26751 0.0425,-0.0788 0.0985,-0.15081 0.15887,-0.21684 0.0415,-0.0438 0.0875,-0.0831 0.13535,-0.11972 0.56404,-0.1489 1.69183,-0.96718 -1.47076,0.86618 -0.005,0.003 0.009,-0.007 0.0147,-0.009 0.046,-0.0203 -0.005,0.0117 0.0424,-0.0211 0.041,-0.0333 0.0895,-0.0509 0.13461,-0.0766 0.0411,-0.0314 0.0907,-0.0315 0.13972,-0.035 0.0386,-0.008 0.077,-0.0121 0.11652,-0.0142 0.0419,-0.004 0.0813,-0.0156 0.12402,-0.0195 0.0453,-0.003 0.0907,-0.004 0.13601,-0.007 0.0444,-0.005 0.0877,-8e-4 0.1323,0.002 0.0443,-0.003 0.0795,0.0252 0.11552,0.0468 0.0438,0.0225 0.0849,0.05 0.12873,0.0725 0.058,0.0454 0.0837,0.11495 0.10918,0.18152 0.0205,0.0907 0.04,0.1786 0.0441,0.27199 0.0119,0.10908 -0.0131,0.21046 -0.0438,0.31369 -0.0246,0.0652 -0.0676,0.11899 -0.12098,0.16276 -0.0513,0.049 -0.10955,0.089 -0.17205,0.12229 -0.072,0.0494 -0.14917,0.0921 -0.21349,0.15152 -0.0704,0.0664 -0.1491,0.12349 -0.22382,0.18508 -0.0831,0.055 -0.15646,0.12243 -0.22887,0.19083 -0.0894,0.0828 -0.18755,0.15451 -0.27678,0.23744 -0.0846,0.1102 -0.19912,0.18684 -0.30571,0.27321 -0.0934,0.0636 -0.16951,0.1412 -0.2134,0.24562 -0.0564,0.18517 -0.185458,0.32912 -0.310989,0.47115 -0.04554,0.0593 -0.104751,0.11713 -0.114435,0.19495 -0.0045,0.0359 -0.0024,0.0723 -0.0045,0.10837 -0.0026,0.0186 -0.0045,0.0373 -0.0079,0.0557 -0.0034,0.0182 -0.01011,0.0357 -0.01244,0.054 -0.0098,0.0778 0.0091,0.1619 0.01035,0.24024 0.03691,0.17023 0.03311,0.34478 0.05973,0.51644 0.0071,0.10347 0.03168,0.20402 0.04884,0.30574 0.0059,0.0348 0.006,0.0704 0.01296,0.10494 0.0145,0.0714 0.03871,0.14057 0.05673,0.2112 0.0085,0.0342 0.01709,0.0684 0.0254,0.10271 0.0083,0.034 0.01418,0.0687 0.02432,0.10219 0.0315,0.10431 0.08576,0.19952 0.121144,0.30215 0.0108,0.0314 0.0173,0.0641 0.026,0.0962 0.0387,0.16113 0.13713,0.28968 0.24882,0.40747 0.0754,0.099 0.1647,0.18154 0.26419,0.25507 0.0938,0.0631 0.19535,0.11339 0.29459,0.16718 0.0957,0.0378 0.19395,0.0693 0.29737,0.0686 0.0653,0.003 0.12975,-0.009 0.19457,-0.0126 0.0544,-0.0109 0.10886,-0.0207 0.16412,-0.0258 0.0554,-0.0224 0.11478,-0.031 0.17107,-0.0505 0.58294,-0.22114 0.0947,-0.0341 1.56818,-0.90861 0.004,-0.002 -0.007,-0.007 -0.007,-0.0119 2.4e-4,-0.006 0.004,-0.0115 0.008,-0.016 0.006,-0.007 0.042,-0.0323 0.0475,-0.0363 0.0565,-0.0511 0.1088,-0.10762 0.15925,-0.16488 0.0363,-0.047 0.0631,-0.0983 0.0922,-0.14977 0.009,-0.0322 0.0366,-0.0621 0.0385,-0.096 0.001,-0.0188 -0.004,-0.0374 -0.005,-0.0562 0.0128,-0.0737 0.0149,-0.14677 0.0322,-0.22026 -0.008,-0.0892 -0.003,-0.17961 -0.0144,-0.26941 -0.001,-0.13166 -0.0589,-0.25177 -0.0753,-0.38052 -0.0131,-0.13134 -0.0478,-0.25757 -0.065,-0.38864 -0.003,-0.019 -0.004,-0.0385 -0.01,-0.057 -0.005,-0.0196 -0.0396,-0.0966 -0.0461,-0.11481 -0.02,-0.0562 -0.0307,-0.11356 -0.0519,-0.16944 -0.0259,-0.10118 -0.0913,-0.1811 -0.14236,-0.26971 -0.0441,-0.0767 -0.11238,-0.1333 -0.16984,-0.19953 -0.0115,-0.008 -0.023,-0.0159 -0.0345,-0.0238 -0.0294,-0.0202 -0.0379,-0.0239 -0.0626,-0.0485 -0.002,-0.002 -0.0349,-0.0412 -0.0381,-0.0432 -0.0107,-0.007 -0.0237,-0.009 -0.0356,-0.0139 -0.009,-0.004 -0.0181,-0.006 -0.0266,-0.0107 -0.0122,-0.006 -0.0208,-0.0185 -0.0333,-0.024 -0.0177,-0.008 -0.039,-0.002 -0.0579,-0.008 -0.032,-0.0197 -0.0725,-0.009 -0.1067,-0.0191 -2.827011,1.46337 -1.12465,0.21921 -1.24897,0.86334 -0.01,0.0347 -0.0103,0.0755 -0.0236,0.10901 0.0126,0.0297 0.0126,0.0629 0.0244,0.0934 -0.002,0.0425 0.011,0.084 0.024,0.12394 0.0251,0.051 0.0257,0.10778 0.0393,0.16084 -7.9e-4,0.0336 1.8e-4,0.0659 0.0143,0.0966 0.009,0.0304 0.003,0.0622 0.01,0.093 0.003,0.0314 0.006,0.0622 0.004,0.0939 0.006,0.0464 0.0318,0.062 0.0193,0.11651 0.004,0.0243 -0.0158,0.0512 -0.006,0.0734 0.0536,-0.0127 0.20364,-0.0965 0.24463,-0.11831 0.12887,-0.0687 0.25668,-0.13942 0.38501,-0.20913 0,0 -0.0713,0.0363 -0.0713,0.0363 v 0 c 0.20228,-0.0963 0.43651,-0.19328 0.62965,-0.31413 0.007,-0.0226 -0.007,-0.0433 -0.006,-0.0673 -0.0142,-0.0479 0.0177,-0.091 0.0195,-0.1371 -0.002,-0.0366 0.001,-0.0729 -0.002,-0.10936 -0.001,-0.0359 -0.0165,-0.0666 -0.024,-0.10106 1.5e-4,-0.0356 -0.009,-0.0718 -0.0299,-0.10109 -0.0151,-0.0464 -0.0442,-0.0882 -0.0402,-0.14084 0.001,-0.0389 0.009,-0.0771 0.0102,-0.11583 0.0112,-0.0347 0.0136,-0.0711 0.0336,-0.10239 -0.005,-0.0267 0.004,-0.0611 0.007,-0.0872 0.006,-0.021 0.0128,-0.0485 0.031,-0.063 0.0123,-0.01 0.0604,-0.0145 0.0469,-0.006 -0.40985,0.24291 -0.82512,0.47655 -1.23767,0.71482 0.008,-0.0265 0.0275,-0.0323 0.0534,-0.0348 0.0211,-0.002 0.016,0.008 0.0353,0.008 0.0186,2.6e-4 0.0355,-0.0121 0.0535,-1.8e-4 0.0448,0.0332 0.10532,0.0289 0.14,0.0969 0.0644,0.046 0.11897,0.10047 0.16898,0.16198 0.06,0.0704 0.1036,0.151 0.15141,0.23 0.0236,0.0484 0.0544,0.0941 0.0718,0.14522 0.0269,0.0789 0.005,0.0373 0.0276,0.1149 0.005,0.0165 0.0125,0.0321 0.0187,0.0482 0.0438,0.11792 0.0666,0.23801 0.0914,0.36098 0.0241,0.13264 -0.006,0.26517 -0.0197,0.39777 -0.0201,0.0963 -0.0324,0.19724 -0.0765,0.28609 -0.0161,0.0821 -0.0536,0.15478 -0.0874,0.2306 -0.0298,0.0474 -0.0668,0.0893 -0.0964,0.13698 -0.0281,0.0424 -0.0573,0.0823 -0.0976,0.11466 -0.0542,0.0529 -0.11135,0.10115 -0.17516,0.14231 -0.0316,0.025 -0.0612,0.0502 -0.0979,0.0678 -0.0169,0.008 -0.0678,0.0312 -0.0517,0.0217 1.52922,-0.89772 1.92399,-1.2486 1.4747,-0.85168 -0.0332,0.0297 -0.0666,0.0404 -0.11,0.0466 -0.0396,0.0236 -0.0842,0.0211 -0.12889,0.0262 -0.0603,0.0155 -0.12316,0.021 -0.18427,0.0329 -0.0751,0.007 -0.14498,0.003 -0.21512,-0.0291 -0.10031,-0.0282 -0.19694,-0.0681 -0.28529,-0.12386 -0.0976,-0.0614 -0.19176,-0.12874 -0.28329,-0.19892 -0.0988,-0.0994 -0.19085,-0.20265 -0.26518,-0.32241 -0.0166,-0.0256 -0.0361,-0.0496 -0.0499,-0.0769 -0.0467,-0.0921 -0.0633,-0.19693 -0.0917,-0.29513 -0.009,-0.0314 -0.0209,-0.0621 -0.0298,-0.0936 -0.009,-0.0328 -0.0162,-0.0662 -0.0244,-0.0993 -0.0397,-0.20247 -0.0615,-0.40756 -0.0766,-0.61333 0.003,-0.18428 0.006,-0.36857 0.0468,-0.54917 0.009,-0.11209 0.0394,-0.22018 0.0594,-0.33027 0.0357,-0.0807 0.0983,-0.14474 0.12795,-0.22908 0.0757,-0.17176 0.17404,-0.33043 0.31577,-0.45664 0.0898,-0.0754 0.18159,-0.14852 0.26723,-0.22858 0.0993,-0.0885 0.1844,-0.19188 0.29263,-0.27035 0.0913,-0.0746 0.17672,-0.15529 0.26636,-0.2318 0.0778,-0.0606 0.15823,-0.11848 0.22953,-0.18656 0.0727,-0.059 0.14336,-0.1207 0.21799,-0.17706 0.0625,-0.0402 0.12193,-0.0852 0.1764,-0.13596 0.044,-0.0494 0.0873,-0.10156 0.11291,-0.16324 0.0264,-0.0705 0.0327,-0.14364 0.0242,-0.2185 -0.0114,-0.10295 -0.0369,-0.2044 -0.0325,-0.30937 -0.0123,-0.10663 -0.01,-0.22242 -0.0594,-0.31926 -0.004,-0.0103 -0.0324,-0.0871 -0.037,-0.095 -0.007,-0.0119 -0.0184,-0.0203 -0.0266,-0.0313 -0.0273,-0.0369 -0.0483,-0.0783 -0.0736,-0.11644 -0.035,-0.0543 -0.0802,-0.0922 -0.13497,-0.1262 -0.0486,-0.0297 -0.0987,-0.0551 -0.14532,-0.0883 -0.0525,-0.0223 -0.10367,-0.0306 -0.16014,-0.038 -0.0442,-0.004 -0.0884,-0.005 -0.13273,-0.005 -0.0448,1.5e-4 -0.0901,-0.005 -0.13284,0.006 -0.0409,0.0106 -0.0834,0.006 -0.12489,0.0138 -0.0557,0.0144 -0.11045,0.0209 -0.16827,0.0175 -0.0446,0.008 -0.0884,0.0261 -0.13145,0.0393 -0.0178,0.006 -0.0319,0.0169 -0.0481,0.0263 -0.39817,0.22975 -1.24955,0.41514 -1.57171,0.93343 -0.0358,0.0436 -0.0685,0.0891 -0.0956,0.13872 -0.0417,0.0787 -0.0776,0.15737 -0.0888,0.2471 -0.0322,0.11643 -0.0632,0.23324 -0.044,0.35518 0.015,0.10231 0.0445,0.20577 0.0863,0.29997 0.0608,0.10529 0.1231,0.21084 0.19997,0.30534 0.0369,0.0449 0.073,0.0876 0.11722,0.12559 0.0225,0.0194 0.0496,0.0339 0.0688,0.0566 0.006,0.007 0.007,0.0157 0.0109,0.0235 0,0 1.48268,-0.96614 1.48268,-0.96614 z" />
    <path
       style="fill:#aa0000;fill-opacity:1;fill-rule:nonzero;stroke:none;stroke-width:0.264583"
       id="path74"
       d="m 101.96936,168.92421 c -0.0106,-0.0572 0.019,-0.10158 0.007,-0.16123 -0.003,-0.008 -0.009,-0.0153 -0.009,-0.0237 0.001,-0.0303 0.0385,-0.1229 0.049,-0.1599 0.0535,-0.0638 0.10216,-0.13138 0.15639,-0.19517 0.0375,-0.0608 0.0928,-0.11331 0.11226,-0.18395 0.0132,-0.0925 0.0595,-0.17018 0.10742,-0.24831 0.0468,-0.10697 0.0825,-0.21415 0.14332,-0.31453 0.0786,-0.12469 0.16664,-0.24128 0.25697,-0.35747 0.0586,-0.0945 0.13046,-0.17913 0.1441,-0.2927 0.0326,-0.11797 0.0499,-0.23757 0.064,-0.3589 0.0284,-0.13715 0.0354,-0.27708 0.0432,-0.41657 0.0177,-0.12696 0.0393,-0.25444 0.0422,-0.3828 0.0163,-0.10672 -0.009,-0.21008 -0.0207,-0.31529 -0.0186,-0.0447 0.023,-0.10031 0.0121,-0.14414 -0.003,-0.0119 -0.017,-0.0179 -0.0231,-0.0285 -0.005,-0.008 -0.0188,-0.0544 -0.0219,-0.0642 -0.002,-0.0111 -0.006,-0.0219 -0.007,-0.0332 -0.001,-0.0261 0.006,-0.052 0.008,-0.0781 0.002,-0.0382 -0.002,-0.0764 -0.004,-0.1145 0.006,-0.0705 0.005,-0.14112 0.004,-0.21171 0.007,-0.0315 -0.0107,-0.0482 -0.0216,-0.0742 -0.004,-0.009 -0.002,-0.0193 -0.008,-0.0267 -0.0503,-0.0665 -0.009,0.03 -0.0374,-0.0479 -0.0199,-0.0546 -0.0299,-0.11017 -0.0419,-0.16664 -0.0166,-0.0545 -0.0374,-0.10752 -0.0518,-0.16274 -0.0317,-0.0458 -0.0643,-0.0895 -0.0958,-0.13578 -0.0231,-0.006 -0.0206,-0.0575 -0.0338,-0.0682 -0.008,-0.006 -0.0199,-0.002 -0.0293,-0.006 -0.01,-0.003 -0.0279,-0.0179 -0.0361,-0.024 -0.0191,-0.0198 -0.0276,-0.0531 -0.0493,-0.0703 -0.05,-0.0398 0.002,0.0202 -0.0355,-0.0267 -0.0133,-0.0135 -0.0361,-0.0143 -0.0494,-0.0277 -0.0196,-0.0198 -0.0393,-0.0744 -0.0454,-0.10137 -0.0151,-0.0394 -0.0393,-0.0656 -0.0672,-0.0958 -0.0164,-0.0295 -0.002,-0.0465 0.006,-0.0752 0.008,-0.0271 0.006,-0.0563 0.004,-0.084 0.008,-0.0131 0.0191,-0.0246 0.0241,-0.0391 0.005,-0.014 -0.005,-0.03 -0.001,-0.0443 0.0105,-0.0382 0.0144,-0.0444 0.0123,-0.0846 7.9e-4,-0.0499 -0.0519,-0.0715 -0.0666,-0.11332 -0.0108,-0.0308 -0.01,-0.0646 -0.0159,-0.0967 -0.041,-0.0905 -0.0698,-0.18477 -0.11545,-0.27358 -0.0326,-0.11373 -0.0898,-0.21757 -0.12328,-0.33078 -0.0328,-0.11841 -0.0774,-0.23378 -0.10818,-0.35253 -0.0139,-0.0805 -0.0283,-0.15643 -0.0657,-0.22973 -0.0144,-0.0726 0.0233,-0.14141 0.0275,-0.214 -0.002,-0.009 -0.005,-0.0176 -0.004,-0.0265 0.001,-0.0112 0.007,-0.0214 0.01,-0.0324 0.01,-0.0428 0.01,-0.0862 0.0204,-0.12925 0.006,-0.058 0.0541,-0.11588 0.0403,-0.1735 2e-5,-0.0585 0.0314,-0.1132 0.051,-0.16754 0.003,-0.009 0.007,-0.0178 0.008,-0.027 0.005,-0.0286 -0.005,-0.0211 0.0106,-0.0485 0.0166,-0.0285 0.0349,-0.0469 0.0451,-0.0792 0.008,-0.0774 0.0888,-0.10482 0.12442,-0.16726 0.0132,-0.0443 5.3e-4,-0.0902 0.003,-0.13619 0.023,-0.067 0.008,-0.13742 0.004,-0.20617 -0.0176,-0.0979 0.002,-0.1971 -0.0161,-0.29473 -0.003,-0.0137 -0.0179,-0.081 -0.0263,-0.0938 -0.008,-0.0123 -0.0262,-0.0159 -0.0337,-0.0286 -0.0151,-0.0258 -0.009,-0.0821 -0.0136,-0.11182 -0.0313,-0.0614 -0.0351,-0.13031 -0.0437,-0.19722 -0.0118,-0.0401 -0.028,-0.0804 -0.0232,-0.12274 -0.0135,-0.0353 -0.0282,-0.0699 -0.0408,-0.10601 -0.0237,-0.01 -0.0311,-0.0421 -0.0499,-0.056 -0.0273,-0.0203 -0.0699,-0.0286 -0.10024,-0.0453 -0.0604,-0.0894 -0.10404,-0.0759 -0.20584,-0.064 -0.11809,0.0138 -0.0638,0.0102 -0.16781,0.0128 0.0144,-0.0314 0.0272,-0.0717 0.0158,-0.10689 -0.002,-0.008 -0.0126,-0.0118 -0.0136,-0.0198 -0.002,-0.0171 0.008,-0.0334 0.0112,-0.0504 0.005,-0.002 0.0264,-0.0502 0.015,-0.057 -0.008,-0.005 -0.0279,0.008 -0.0281,-0.002 -1.3e-4,-0.006 0.051,-0.0467 0.065,-0.0582 0.0325,-0.0538 0.0555,-0.0791 0.0461,-0.14533 0.0141,-0.0472 -0.004,-0.088 -0.0108,-0.1343 -0.005,-0.007 -0.0123,-0.0134 -0.015,-0.0218 -0.006,-0.0202 0.008,-0.0446 -8e-4,-0.0637 -0.005,-0.0108 -0.0196,-0.014 -0.0276,-0.0229 -0.0205,-0.0228 -0.0213,-0.0352 -0.0307,-0.0634 -0.004,-0.0607 0.001,-0.12195 0.004,-0.18279 0,0 -0.0714,0.036 -0.0714,0.036 v 0 c -0.003,0.0631 -0.005,0.12672 -0.0161,0.18888 -0.0136,0.045 -0.014,0.054 -0.0371,0.0972 -0.01,0.0181 -0.0242,0.0335 -0.032,0.0525 -0.014,0.0338 0.003,0.0793 -0.0282,0.10858 -0.0102,0.0528 -0.0344,0.10108 -0.034,0.15554 -0.003,0.013 -0.0128,0.077 -0.005,0.0881 0.0354,0.0487 0.0145,-0.0223 0.025,0.0211 0.13426,-0.006 -0.0286,0.0219 0.0336,0.08 0.005,0.0122 0.0181,0.0218 0.0194,0.0351 10e-4,0.0105 -0.007,0.0204 -0.007,0.0309 -8e-4,0.0334 0.0159,0.0602 0.0442,0.0758 -0.084,0.0965 -0.0412,0.0499 -0.14146,0.15289 -0.0851,0.0875 -0.12962,0.12786 -0.14308,0.2503 -0.0321,0.0772 -0.0739,0.14699 -0.0763,0.23284 0.008,0.0356 0.0135,0.068 0.008,0.10431 0.0159,0.0387 0.0156,0.0828 0.0223,0.12359 0.01,0.0721 0.0239,0.144 0.0233,0.21715 0.007,0.0261 0.0291,0.068 0.0237,0.0955 -0.004,0.0203 -0.0185,0.0373 -0.0235,0.0573 -0.003,0.0125 -0.006,0.0939 -0.006,0.10659 -0.003,0.0949 0.0236,0.19041 -2.6e-4,0.28429 -0.0121,0.0696 -0.0373,0.13907 -0.0317,0.21026 -0.01,0.0493 -0.0312,0.0922 -0.0459,0.13953 2.3e-4,0.003 0.002,0.0285 0.005,0.0297 0.0316,0.0114 0.0996,-0.0406 0.0652,0.0341 -0.008,0.0206 -0.002,0.0347 -0.008,0.0545 -0.009,0.0344 -0.0384,0.0585 -0.0483,0.0926 -0.0273,0.0666 -0.0516,0.13454 -0.0897,0.19621 -0.0353,0.0576 -0.0398,0.12231 -0.0585,0.18679 -0.0177,0.072 -0.044,0.14473 -0.0848,0.20656 -0.0476,0.0914 -0.0634,0.18542 -0.0722,0.28754 -0.0241,0.118 -0.0115,0.17758 0.0496,0.27889 0.0472,0.1111 0.0873,0.22571 0.12869,0.33916 0.0411,0.11684 0.0615,0.24097 0.12568,0.34892 0.0426,0.0964 0.11365,0.17159 0.18027,0.25178 0.0261,0.0201 0.0568,0.0352 0.0788,0.0597 0.0299,0.0333 0.0297,0.0865 0.0769,0.10514 0.0419,0.0281 0.0365,0.0196 0.0818,0.0319 0.0171,0.005 0.0272,0.0255 0.0446,0.0289 0.0164,0.003 0.0332,-0.002 0.0498,-0.004 0.0495,0.0188 0.11141,0.0159 0.14287,0.0641 0.0141,0.0328 0.0207,0.0666 0.0373,0.0989 0.0385,0.0519 0.0456,0.10184 0.0292,0.16341 0.009,0.0643 -0.001,-0.0261 -0.003,0.0506 -8e-4,0.029 0.0171,0.0585 0.0187,0.0874 -0.001,0.0129 -0.002,0.0325 -0.006,0.0448 -0.004,0.0107 -0.014,0.0194 -0.0145,0.0307 -0.001,0.0196 0.0353,0.0501 0.0267,0.0736 0.0103,0.0536 0.0133,0.11007 0.007,0.16403 0.0128,0.059 0.018,0.11977 0.0361,0.17735 0.0196,0.0519 0.0353,0.10358 0.0446,0.15858 0.004,0.0491 0.004,-7.9e-4 -0.0159,0.0591 -0.003,0.008 -5.3e-4,0.0172 -0.002,0.0256 -0.006,0.0312 -0.0214,0.0596 -0.0113,0.0923 0.007,0.0642 0.0102,0.12871 0.0151,0.19313 -0.004,0.0771 -0.005,0.15693 -0.0249,0.23131 -0.003,0.0105 -0.027,0.0837 -0.0308,0.0928 -0.008,0.0189 -0.0221,0.0353 -0.0272,0.0551 -0.0116,0.0445 0.021,0.0957 0.007,0.1406 -0.0107,0.11144 -0.0352,0.22161 -0.0244,0.33427 -0.003,0.1174 0.005,0.23502 -0.002,0.35246 -0.0174,0.13657 -0.0321,0.27346 -0.0511,0.40982 -0.0251,0.11755 -0.0556,0.23377 -0.0693,0.35337 -0.0142,0.0436 -0.0309,0.0993 -0.0145,0.1457 0.004,0.011 0.0157,0.0181 0.0196,0.0292 0.004,0.012 0.003,0.0252 0.004,0.0379 0.0295,0.0379 0.0134,0.0197 0.0484,0.0544 0.032,0.0382 0.0495,0.088 0.0905,0.12069 0.0484,0.0851 0.019,0.14 0.0161,0.23185 0.0181,0.0715 0.009,0.13748 -0.0194,0.20582 -0.025,0.0799 0.008,0.0477 0.011,0.0872 0.003,0.0474 -0.0192,10e-4 5.3e-4,0.0351 0.01,0.0165 0.0225,0.0665 0.0245,0.0689 0.005,0.006 0.0154,0.006 0.0202,0.0121 0.004,0.005 0.003,0.0131 0.005,0.0196 -0.0198,0.0692 -0.034,0.14375 -0.0783,0.20157 -0.0425,0.0694 -0.0671,0.14699 -0.11619,0.21222 0,0 0.21941,-0.10327 0.21941,-0.10327 z" />
    <path
       style="fill:#aa0000;fill-opacity:1;fill-rule:nonzero;stroke:none;stroke-width:0.264583"
       id="path76"
       d="m 101.56697,180.22145 c 0.0513,0.15283 0.0463,0.3172 0.0558,0.47656 0.003,0.11521 -0.0142,0.23044 -0.005,0.34536 -0.003,0.0811 0.006,0.15911 0.0212,0.23871 0.0189,0.12906 0.0568,0.26665 -8e-4,0.38766 -1.3e-4,0.10642 0.0143,0.14257 -0.0328,0.23957 -0.0397,0.0579 -0.0457,0.11432 -0.0881,0.1633 -0.0385,0.0377 -0.085,0.064 -0.13348,0.0847 -0.0268,0.017 -0.0524,0.0358 -0.0739,0.0583 2.56951,-1.49061 0.29205,-0.14027 0.062,-0.004 -0.0189,0.0636 -0.0221,0.13518 -0.0351,0.20186 -0.0347,0.0938 -0.0604,0.19183 -0.0998,0.28354 -0.0312,0.0956 -0.0439,0.19572 -0.0585,0.2949 -0.0259,0.16527 -0.0224,0.33367 -0.0398,0.50021 -0.005,0.17058 0.0413,0.33873 0.0632,0.50764 0.0215,0.14608 0.0352,0.29263 0.0391,0.44017 -0.039,0.11338 -0.004,0.22513 0.0282,0.33562 0.0453,0.19061 0.13462,0.36403 0.21969,0.53913 0.0718,0.17643 0.16495,0.34191 0.25117,0.51147 0.01,0.0682 0.0201,0.1943 -0.0407,0.24817 -0.0207,0.0183 -0.0512,0.0205 -0.0765,0.0317 -0.41615,0.22984 -0.93882,0.56341 0.97986,-0.57556 0.0426,-0.0253 -0.0883,0.0453 -0.13267,0.0674 -0.0849,0.0422 -0.17053,0.083 -0.25566,0.12483 -1.09942,0.56848 -1.43302,0.43208 -1.46001,1.34552 0.0185,0.3592 0.15786,0.69164 0.27942,1.02509 0.0915,0.29024 0.23324,0.55675 0.35909,0.8321 0.0859,0.16306 0.12124,0.3485 0.20582,0.51101 0.0673,0.16706 0.10171,0.34329 0.13478,0.51939 0.0322,0.189 0.066,0.37772 0.0994,0.56658 0.0164,0.14355 0.0239,0.28889 0.0206,0.43334 0.01,0.15265 0.003,0.30458 -0.007,0.45692 -0.008,0.12548 -0.007,0.24194 -0.0866,0.34208 -0.0496,0.0687 -0.0764,0.15007 -0.12502,0.21908 -0.0765,0.062 -0.14354,0.12905 -0.18599,0.2185 -0.0618,0.1443 -0.12952,0.28512 -0.16373,0.43891 2.7e-4,0.2083 -0.0282,0.41341 -0.0203,0.6218 0.026,0.24715 0.11152,0.48181 0.15791,0.72684 0.028,0.1802 0.0694,0.35766 0.0909,0.53889 0.0143,0.1772 -0.014,0.35425 -0.0514,0.52697 -0.0717,0.24058 -0.1075,0.48884 -0.14737,0.7361 -0.0515,0.25973 -0.0557,0.52435 -0.0563,0.78799 0.0131,0.25389 2e-5,0.50769 7e-5,0.76175 -0.006,0.31989 -0.007,0.63867 -0.0214,0.95844 0.006,0.0473 0.0101,0.095 0.0191,0.14186 0.0534,0.27864 0.017,-0.0223 0.0557,0.27345 0.0196,0.15013 0.0192,0.2979 0.0423,0.4477 0.0363,0.28986 0.0827,0.57749 0.1262,0.8659 0.0737,0.27132 0.049,0.54417 -0.0235,0.81184 -0.0449,0.18172 -0.1743,0.32093 -0.22377,0.50001 -0.0369,0.28445 -0.0463,0.56797 0.0315,0.84539 0.062,0.26397 0.1664,0.51463 0.24559,0.7735 0.0696,0.16584 0.0952,0.33612 0.0735,0.51393 -0.038,0.16152 -0.0861,0.31906 -0.12263,0.48077 -0.0252,0.17466 -0.0759,0.3434 -0.11332,0.51577 -0.0335,0.19748 -0.029,0.39796 -0.0542,0.59651 -0.009,0.14152 -0.0367,0.27901 -0.0668,0.41709 -0.0168,0.0984 -0.0357,0.19625 -0.0576,0.29357 -0.009,0.083 -0.0552,0.15452 -0.0673,0.23617 -0.007,0.10441 -0.005,0.20844 -0.006,0.31285 -0.0142,0.0753 0.053,0.10019 0.0709,0.16251 0.0113,0.0393 0.0151,0.0804 0.0251,0.12 0.0382,0.14002 -0.0141,0.27014 0.14811,0.33109 0.0713,0.11306 0.16768,0.20809 0.28936,0.26337 0.0306,0.0525 0.0756,0.0916 0.11974,0.13204 0,0 0.068,-0.0421 0.068,-0.0421 v 0 c -0.0438,-0.0399 -0.0885,-0.0783 -0.11874,-0.13037 2e-4,-0.13589 -0.07,-0.23072 -0.1174,-0.35526 0.0624,-0.13987 0.019,-0.26855 0.0299,-0.41644 0.008,-0.12675 0.0262,-0.23653 0.0623,-0.3575 0.003,-0.10456 0.0103,-0.21154 0.0383,-0.31259 0.0291,-0.0827 0.0554,-0.16583 0.0887,-0.24689 0.0243,-0.0972 0.0335,-0.19642 0.0555,-0.29418 0.0295,-0.13695 0.0419,-0.27613 0.0412,-0.41643 -0.004,-0.19759 0.02,-0.39486 0.0622,-0.58785 0.0426,-0.17783 0.10073,-0.35156 0.14282,-0.52949 0.0396,-0.16283 0.0893,-0.32366 0.11646,-0.48907 0.0104,-0.1863 -0.0288,-0.36204 -0.0975,-0.53552 -0.10053,-0.244 -0.20921,-0.48671 -0.28474,-0.73941 -0.023,-0.29126 -0.0132,-0.58623 0.0893,-0.8635 0.0803,-0.16832 0.19566,-0.32047 0.21723,-0.51129 0.0294,-0.28221 0.0611,-0.56314 0.0357,-0.84762 -0.0453,-0.28946 -0.10463,-0.58006 -0.0868,-0.87446 0.032,-0.33105 0.0495,-0.66166 0.1352,-0.98526 0.008,-0.3258 0.0298,-0.64965 0.0543,-0.97458 0.0197,-0.26124 0.0225,-0.52292 0.046,-0.78387 0.0238,-0.26554 0.0596,-0.52975 0.10332,-0.79275 0.0544,-0.26052 0.13431,-0.51046 0.21726,-0.763 0.0502,-0.19808 0.12579,-0.40248 0.0934,-0.60877 -0.0385,-0.17514 -0.09,-0.34726 -0.13848,-0.51983 -0.0574,-0.2432 -0.0813,-0.48816 -0.0827,-0.73823 -0.004,-0.20001 -0.007,-0.40727 0.0739,-0.59414 0.0659,-0.15363 0.14288,-0.30269 0.25071,-0.43172 0.0595,-0.0655 0.11664,-0.12967 0.1466,-0.21455 0.0342,-0.0738 0.0915,-0.16484 0.0684,-0.24685 -0.0675,-0.0734 -0.0405,-0.20343 -0.0535,-0.29612 -0.003,-0.15686 0.008,-0.31234 0.013,-0.4688 -0.0132,-0.14494 -0.0268,-0.28966 -0.053,-0.43316 -0.0239,-0.19493 -0.0495,-0.38953 -0.0602,-0.5858 -0.0181,-0.19154 -0.0513,-0.38097 -0.12031,-0.56148 -0.0471,-0.18226 -0.14435,-0.35353 -0.23744,-0.51616 -0.16523,-0.24336 -0.29836,-0.509 -0.40841,-0.78148 -0.12312,-0.31758 -0.24366,-0.64727 -0.22138,-0.99355 0.0152,-0.13655 0.0281,-0.27059 0.11577,-0.38381 0.0224,-0.029 0.11179,-0.0932 0.0795,-0.0758 -0.19036,0.10273 -1.51798,0.86851 -0.97418,0.55493 0.62907,-0.30196 1.37196,-0.52386 1.82269,-1.06314 0.0433,-0.18527 -0.13021,-0.16244 -0.23923,-0.2589 -0.10244,-0.15609 -0.2149,-0.30645 -0.29784,-0.4742 -0.079,-0.17045 -0.14827,-0.34411 -0.20014,-0.52476 -0.0196,-0.10375 0.005,-0.22233 -0.0608,-0.30945 -0.0416,-0.13063 -0.11311,-0.25193 -0.12562,-0.39139 -0.0247,-0.16219 -0.0575,-0.32328 -0.0647,-0.48751 -0.004,-0.16561 0.0138,-0.3292 0.0509,-0.49073 0.0229,-0.10077 0.0549,-0.19797 0.0777,-0.2984 -7.9e-4,-0.0864 0.0463,-0.17043 0.0512,-0.25733 0.0224,-0.0633 0.0407,-0.14153 0.10352,-0.17433 -0.26934,0.15628 -0.53868,0.31257 -0.80802,0.46885 0.007,-0.003 0.0238,-0.0118 0.0207,-0.005 -0.003,0.006 -0.0476,0.0542 -0.0461,0.0533 0.36756,-0.20595 0.73061,-0.41984 1.09591,-0.62976 0.037,-0.024 0.0757,-0.0455 0.10857,-0.0754 0.0313,-0.0416 0.0573,-0.0752 0.034,-0.12635 -0.006,-0.07 -0.006,-0.11788 -0.0786,-0.14686 -0.0627,-0.0416 -0.10587,-0.0949 -0.16478,-0.14121 -0.11042,-0.043 -0.13313,-0.1904 -0.20336,-0.2812 -0.0293,-0.0641 -0.0567,-0.12895 -0.0748,-0.19724 -0.0182,-0.10426 -0.037,-0.20841 -0.0514,-0.31349 -0.0182,-0.15861 -0.0702,-0.31093 -0.0729,-0.47076 0,0 -0.44947,0.23705 -0.44947,0.23705 z" />
    <path
       style="fill:#aa0000;fill-opacity:1;fill-rule:nonzero;stroke:none;stroke-width:0.264583"
       id="path78"
       d="m 100.58927,204.43388 c 0.17959,0.0756 0.34282,0.18423 0.49002,0.31096 0.13066,0.11771 0.24422,0.2504 0.34887,0.3912 0.11835,0.11278 0.18458,0.25841 0.26529,0.39709 0.045,0.11185 0.10781,0.19917 0.20622,0.26867 0.16886,0.17454 0.24448,0.15229 0.48786,0.0991 0,0 0.0686,-0.0412 0.0686,-0.0412 v 0 c 0.14653,-0.18918 0.19371,-0.24076 0.023,-0.41119 -0.0561,-0.0927 -0.12903,-0.17229 -0.19427,-0.25848 -0.0868,-0.13741 -0.1729,-0.2757 -0.27141,-0.40505 -0.12313,-0.13491 -0.25873,-0.26004 -0.3994,-0.3762 -0.15772,-0.11645 -0.32459,-0.21963 -0.48801,-0.32781 0,0 -0.53674,0.35293 -0.53674,0.35293 z" />
    <path
       style="fill:#aa0000;fill-opacity:1;fill-rule:nonzero;stroke:none;stroke-width:0.264583"
       id="path80"
       d="m 101.73869,157.8713 c -0.045,-0.25898 0.0246,-0.5186 0.079,-0.77056 0.047,-0.23123 0.0989,-0.4644 0.20228,-0.6777 0.0628,-0.13853 0.14483,-0.26657 0.23224,-0.39051 0.0462,-0.0576 0.0816,-0.1207 0.13086,-0.17588 0.0756,-0.0896 0.12893,-0.19412 0.18806,-0.29484 0.10429,-0.16903 0.15521,-0.3619 0.2417,-0.53928 0.10486,-0.17718 0.15352,-0.37811 0.19184,-0.57809 0.0114,-0.0596 0.0345,-0.1179 0.0358,-0.17861 0.001,-0.0542 -0.0189,-0.10673 -0.0284,-0.1601 -0.047,-0.33235 -0.20397,-0.63396 -0.34545,-0.93393 -0.15705,-0.26729 -0.30035,-0.54183 -0.44138,-0.81772 -0.20198,-0.36795 -0.21078,-0.67528 -0.12341,-1.07749 0.10533,-0.40427 0.34439,-0.71656 0.66217,-0.97595 0.31542,-0.20966 0.33548,-0.22687 0.20682,-0.5981 -0.15322,-0.39022 -0.30485,-0.78771 -0.36551,-1.20409 -0.0262,-0.20606 -0.0677,-0.40243 -0.01,-0.60513 0.0282,-0.16558 0.0792,-0.30792 0.16344,-0.45253 0.11814,-0.19263 0.10374,-0.41317 0.10025,-0.62936 -0.0206,-0.26666 -0.10592,-0.5218 -0.16387,-0.78164 -0.0501,-0.22831 -0.0918,-0.45869 -0.12777,-0.68967 -0.0427,-0.2074 -0.061,-0.41704 -0.0669,-0.6284 0.004,-0.34916 0.0107,-0.69739 0.0118,-1.04665 0.01,-0.39412 0.0478,-0.78581 0.048,-1.1803 -0.002,-0.35017 0.008,-0.70041 2.7e-4,-1.05056 -0.0383,-0.40202 -0.0799,-0.80265 -0.0986,-1.20636 -0.0433,-0.18359 0.0369,-0.45169 -0.0585,-0.61622 -0.13229,-0.0991 -0.28667,-0.0385 -0.43536,-0.0117 0,0 -0.0716,0.0356 -0.0716,0.0356 v 0 c -0.17073,0.13999 -0.35342,0.26275 -0.44749,0.46955 -0.0549,0.20312 0.0426,0.41669 0.0602,0.62117 0.0677,0.39436 0.12354,0.79018 0.10436,1.19188 -4e-5,0.34913 0.005,0.698 0.004,1.04707 -1.8e-4,0.3785 0.0364,0.75399 0.0469,1.13209 0.002,0.34387 0.004,0.68625 0.0338,1.02926 0.0188,0.21045 0.0495,0.41986 0.0975,0.62574 0.0527,0.22532 0.11581,0.44681 0.17304,0.67095 0.0721,0.25022 0.15717,0.50113 0.15469,0.76481 0.004,0.21038 -0.0256,0.41393 -0.1394,0.59552 -0.11856,0.1859 -0.2662,0.35594 -0.34394,0.56438 -0.0616,0.22747 -0.10215,0.44941 -0.0264,0.68155 0.0539,0.19767 0.0891,0.39714 0.13637,0.59614 0.0514,0.21642 0.13019,0.42787 0.13374,0.65363 -0.002,0.29729 -0.0448,0.286 -0.23469,0.47909 -0.26242,0.29546 -0.47049,0.62394 -0.56877,1.01189 -0.0859,0.40961 -0.10027,0.80655 0.0638,1.20079 0.14383,0.27958 0.34186,0.5252 0.51042,0.79 0.19987,0.24573 0.37203,0.51482 0.46448,0.82035 0.10085,0.52617 -0.0499,-0.18292 0.0888,0.26362 0.0456,0.14683 -0.001,0.30787 0.004,0.45663 -0.0466,0.18336 -0.13287,0.35324 -0.22502,0.51781 -0.0698,0.10589 -0.14842,0.20451 -0.22831,0.30272 -0.0419,0.0544 -0.0805,0.11225 -0.10774,0.17549 -0.0719,0.1344 -0.15787,0.26082 -0.21964,0.40059 -0.044,0.21644 -0.0789,0.4346 -0.12603,0.65047 -0.0545,0.27708 -0.1038,0.55541 -0.16972,0.82977 0,0 0.60287,-0.30717 0.60287,-0.30717 z" />
  </g>
</svg>
