<?xml version="1.0" encoding="UTF-8" standalone="no"?>
<!-- Created with Inkscape (http://www.inkscape.org/) -->

<svg
   preserveAspectRatio="none"
   width="58.270477mm"
   height="67.810234mm"
   viewBox="0 0 58.270477 67.810234"
   version="1.1"
   id="svg5"
   inkscape:version="1.1.2 (0a00cf5339, 2022-02-04)"
   sodipodi:docname="borde-vertical.svg"
   xmlns:inkscape="http://www.inkscape.org/namespaces/inkscape"
   xmlns:sodipodi="http://sodipodi.sourceforge.net/DTD/sodipodi-0.dtd"
   xmlns="http://www.w3.org/2000/svg"
   xmlns:svg="http://www.w3.org/2000/svg">
  <sodipodi:namedview
     id="namedview7"
     pagecolor="#ffffff"
     bordercolor="#666666"
     borderopacity="1.0"
     inkscape:pageshadow="2"
     inkscape:pageopacity="0.40392157"
     inkscape:pagecheckerboard="true"
     inkscape:document-units="mm"
     showgrid="false"
     lock-margins="false"
     fit-margin-top="0"
     fit-margin-left="0"
     fit-margin-right="0"
     fit-margin-bottom="0"
     inkscape:zoom="1.1790792"
     inkscape:cx="431.69281"
     inkscape:cy="121.28109"
     inkscape:window-width="1366"
     inkscape:window-height="707"
     inkscape:window-x="0"
     inkscape:window-y="1135"
     inkscape:window-maximized="1"
     inkscape:current-layer="layer1" />
  <defs
     id="defs2" />
  <g
     inkscape:label="Capa 1"
     inkscape:groupmode="layer"
     id="layer1"
     transform="translate(-52.077592,-117.81374)">
    <path
       style="fill:#d40000;fill-opacity:1;fill-rule:nonzero;stroke:none;stroke-width:0.224358"
       id="path72"
       d="m 103.82774,150.44015 c -0.0709,-0.005 -0.12066,-0.0686 -0.16974,-0.11836 -0.0617,-0.0663 -0.0975,-0.15008 -0.12594,-0.23737 -0.0273,-0.0729 -0.0359,-0.14927 -0.0438,-0.22667 -0.007,-0.0805 0.002,-0.1598 0.0257,-0.23617 0.0346,-0.0695 0.0802,-0.13314 0.1294,-0.19144 0.0338,-0.0386 0.0713,-0.0734 0.11024,-0.10564 0.45941,-0.13144 1.37799,-0.85384 -1.19792,0.76468 -0.004,0.003 0.007,-0.006 0.012,-0.007 0.0375,-0.018 -0.004,0.0106 0.0345,-0.0186 0.0334,-0.0294 0.0729,-0.0449 0.10964,-0.0676 0.0335,-0.0277 0.0739,-0.0277 0.1138,-0.0309 0.0314,-0.007 0.0627,-0.0107 0.0949,-0.0125 0.0341,-0.004 0.0662,-0.0138 0.10101,-0.0173 0.0369,-0.003 0.0739,-0.004 0.11078,-0.006 0.0362,-0.004 0.0714,-7.1e-4 0.10775,0.002 0.0361,-0.003 0.0648,0.0222 0.0941,0.0414 0.0357,0.0198 0.0691,0.0441 0.10485,0.0639 0.0472,0.04 0.0682,0.10151 0.0889,0.16025 0.0167,0.08 0.0326,0.15767 0.0359,0.24012 0.01,0.0963 -0.0106,0.1858 -0.0357,0.27693 -0.02,0.0575 -0.0551,0.10501 -0.0985,0.14369 -0.0418,0.0433 -0.0892,0.0785 -0.14014,0.10795 -0.0586,0.0436 -0.1215,0.0813 -0.17388,0.13377 -0.0573,0.0586 -0.12144,0.10902 -0.1823,0.1634 -0.0677,0.0486 -0.12744,0.10808 -0.18642,0.16847 -0.0728,0.073 -0.15276,0.13639 -0.22543,0.20961 -0.0689,0.0973 -0.16218,0.16494 -0.249,0.2412 -0.0761,0.0561 -0.13807,0.12465 -0.17381,0.21684 -0.046,0.16347 -0.15106,0.29055 -0.2533,0.41595 -0.0371,0.0524 -0.0853,0.10341 -0.0932,0.17209 -0.004,0.0318 -0.002,0.0638 -0.004,0.0957 -0.002,0.0164 -0.003,0.0329 -0.007,0.0492 -0.002,0.0161 -0.008,0.0316 -0.0101,0.0477 -0.008,0.0687 0.007,0.14294 0.008,0.21209 0.0301,0.15029 0.027,0.30438 0.0486,0.45593 0.006,0.0914 0.0258,0.18011 0.0397,0.26991 0.005,0.0307 0.005,0.0621 0.0106,0.0926 0.0118,0.0631 0.0315,0.12409 0.0462,0.18644 0.007,0.0302 0.0139,0.0605 0.0207,0.0906 0.007,0.0301 0.0116,0.0607 0.0198,0.0903 0.0256,0.0921 0.0699,0.17614 0.0987,0.26674 0.009,0.0277 0.0141,0.0566 0.0212,0.0849 0.0315,0.14225 0.11169,0.25573 0.20266,0.35972 0.0614,0.0873 0.13415,0.16026 0.21518,0.22518 0.0764,0.0557 0.15911,0.10014 0.23994,0.14759 0.078,0.0333 0.15797,0.0612 0.24221,0.0605 0.0532,0.003 0.10568,-0.008 0.15847,-0.0111 0.0443,-0.01 0.0887,-0.0182 0.13368,-0.0229 0.0451,-0.0197 0.0935,-0.0274 0.13933,-0.0447 0.47481,-0.19523 0.0771,-0.0301 1.27729,-0.80214 0.003,-0.002 -0.005,-0.006 -0.005,-0.0106 2e-4,-0.005 0.003,-0.0106 0.007,-0.0142 0.004,-0.006 0.0342,-0.0286 0.0387,-0.0321 0.046,-0.0451 0.0887,-0.0951 0.1297,-0.14555 0.0296,-0.0415 0.0514,-0.0868 0.0751,-0.13222 0.008,-0.0285 0.0298,-0.0548 0.0313,-0.0848 8.2e-4,-0.0165 -0.003,-0.033 -0.004,-0.0495 0.011,-0.0651 0.0122,-0.12958 0.0262,-0.19445 -0.007,-0.0788 -0.003,-0.15856 -0.0117,-0.23784 -8e-4,-0.11624 -0.0479,-0.22227 -0.0614,-0.33594 -0.011,-0.11595 -0.039,-0.22738 -0.0529,-0.3431 -0.003,-0.0167 -0.003,-0.034 -0.008,-0.0503 -0.004,-0.0172 -0.0322,-0.0853 -0.0375,-0.10141 -0.0162,-0.0495 -0.025,-0.10024 -0.0423,-0.14959 -0.021,-0.0893 -0.0743,-0.15987 -0.11595,-0.23809 -0.0359,-0.0677 -0.0916,-0.11769 -0.13834,-0.17615 -0.01,-0.007 -0.0187,-0.0141 -0.0281,-0.0211 -0.024,-0.0179 -0.0309,-0.0212 -0.051,-0.0429 -0.002,-0.002 -0.0285,-0.0364 -0.0311,-0.0382 -0.009,-0.006 -0.0193,-0.007 -0.029,-0.0123 -0.008,-0.004 -0.0147,-0.005 -0.0216,-0.01 -0.01,-0.005 -0.017,-0.0164 -0.0271,-0.0212 -0.0145,-0.007 -0.0318,-0.002 -0.0471,-0.007 -0.0261,-0.0174 -0.0591,-0.007 -0.0869,-0.0168 -2.30258,1.29189 -0.91601,0.19352 -1.01727,0.76216 -0.008,0.0306 -0.008,0.0667 -0.0192,0.0962 0.0103,0.0262 0.0103,0.0556 0.0199,0.0825 -0.002,0.0375 0.009,0.0742 0.0196,0.10941 0.0205,0.045 0.0209,0.0951 0.032,0.14199 -6.5e-4,0.0296 1.4e-4,0.0582 0.0117,0.0853 0.007,0.0269 0.002,0.0549 0.008,0.0821 0.002,0.0277 0.005,0.0549 0.003,0.0829 0.005,0.041 0.0259,0.0547 0.0157,0.10289 0.003,0.0214 -0.0129,0.0452 -0.005,0.0648 0.0436,-0.0112 0.16586,-0.0852 0.19925,-0.10448 0.10497,-0.0606 0.20906,-0.12307 0.31359,-0.18463 0,0 -0.0581,0.0321 -0.0581,0.0321 v 0 c 0.16476,-0.085 0.35554,-0.17064 0.51285,-0.27732 0.005,-0.0199 -0.005,-0.0383 -0.004,-0.0594 -0.0116,-0.0422 0.0145,-0.0803 0.0159,-0.12104 -0.002,-0.0323 8.2e-4,-0.0644 -0.002,-0.0966 -8.2e-4,-0.0318 -0.0135,-0.0589 -0.0196,-0.0892 1.3e-4,-0.0314 -0.008,-0.0634 -0.0243,-0.0892 -0.0123,-0.041 -0.0359,-0.0778 -0.0328,-0.12434 8.1e-4,-0.0343 0.008,-0.0681 0.009,-0.10225 0.009,-0.0307 0.0111,-0.0628 0.0274,-0.0904 -0.004,-0.0236 0.003,-0.054 0.005,-0.077 0.004,-0.0185 0.011,-0.0429 0.0252,-0.0557 0.01,-0.008 0.0492,-0.0128 0.0383,-0.005 -0.33382,0.21445 -0.67206,0.42071 -1.00808,0.63105 0.007,-0.0234 0.0224,-0.0286 0.0435,-0.0307 0.0172,-0.002 0.013,0.007 0.0288,0.007 0.0151,2.2e-4 0.0289,-0.0107 0.0436,-1.6e-4 0.0365,0.0293 0.0858,0.0255 0.11403,0.0855 0.0525,0.0405 0.0969,0.0887 0.13763,0.14299 0.0489,0.0621 0.0844,0.1333 0.12333,0.20305 0.0192,0.0428 0.0443,0.0831 0.0585,0.1282 0.0219,0.0696 0.004,0.0329 0.0225,0.1014 0.004,0.0146 0.0102,0.0284 0.0152,0.0426 0.0357,0.10405 0.0542,0.21013 0.0744,0.31869 0.0196,0.11708 -0.005,0.23409 -0.016,0.35116 -0.0164,0.085 -0.0264,0.17411 -0.0623,0.25256 -0.0131,0.0725 -0.0436,0.13664 -0.0712,0.20358 -0.0243,0.0418 -0.0544,0.0789 -0.0785,0.12092 -0.0229,0.0374 -0.0467,0.0727 -0.0795,0.1012 -0.0441,0.0467 -0.0907,0.0892 -0.14266,0.12564 -0.0257,0.022 -0.0499,0.0444 -0.0797,0.0599 -0.0138,0.007 -0.0552,0.0275 -0.0421,0.0192 1.24554,-0.79253 1.56707,-1.1023 1.20112,-0.75189 -0.027,0.0262 -0.0542,0.0357 -0.0896,0.0412 -0.0322,0.0208 -0.0686,0.0186 -0.10499,0.0231 -0.0491,0.0136 -0.10027,0.0185 -0.15008,0.0291 -0.0612,0.006 -0.11809,0.003 -0.17522,-0.0257 -0.0817,-0.0249 -0.1604,-0.0601 -0.23236,-0.10934 -0.0795,-0.0542 -0.15619,-0.11367 -0.23074,-0.17562 -0.0805,-0.0878 -0.15545,-0.1789 -0.21599,-0.28463 -0.0135,-0.0226 -0.0294,-0.0438 -0.0406,-0.068 -0.038,-0.0813 -0.0516,-0.17384 -0.0747,-0.26053 -0.007,-0.0277 -0.017,-0.0548 -0.0243,-0.0826 -0.007,-0.029 -0.0132,-0.0584 -0.0199,-0.0876 -0.0323,-0.17875 -0.0501,-0.3598 -0.0624,-0.54145 0.002,-0.1627 0.005,-0.32539 0.0381,-0.48482 0.007,-0.099 0.0321,-0.19439 0.0484,-0.29157 0.0291,-0.0712 0.0801,-0.12779 0.10422,-0.20225 0.0617,-0.15163 0.14175,-0.2917 0.25719,-0.40313 0.0731,-0.0666 0.1479,-0.13112 0.21766,-0.20179 0.0809,-0.0781 0.15019,-0.1694 0.23834,-0.23867 0.0744,-0.0658 0.14394,-0.13709 0.21695,-0.20463 0.0633,-0.0535 0.12888,-0.10459 0.18695,-0.16471 0.0592,-0.0521 0.11676,-0.10655 0.17756,-0.15631 0.051,-0.0355 0.0993,-0.0752 0.14367,-0.12003 0.0358,-0.0436 0.0711,-0.0897 0.0919,-0.14411 0.0215,-0.0622 0.0266,-0.12681 0.0197,-0.1929 -0.01,-0.0908 -0.0301,-0.18045 -0.0265,-0.27312 -0.01,-0.0941 -0.008,-0.19635 -0.0484,-0.28185 -0.003,-0.008 -0.0264,-0.0769 -0.0301,-0.0839 -0.005,-0.0106 -0.015,-0.018 -0.0216,-0.0276 -0.0222,-0.0325 -0.0393,-0.0691 -0.06,-0.10278 -0.0285,-0.048 -0.0653,-0.0814 -0.10992,-0.11142 -0.0396,-0.0262 -0.0803,-0.0487 -0.11837,-0.0779 -0.0427,-0.0197 -0.0845,-0.027 -0.13043,-0.0336 -0.0359,-0.004 -0.072,-0.004 -0.10806,-0.004 -0.0365,1.4e-4 -0.0734,-0.004 -0.1082,0.005 -0.0333,0.008 -0.0679,0.005 -0.10173,0.0122 -0.0454,0.0127 -0.09,0.0184 -0.13705,0.0155 -0.0363,0.007 -0.072,0.023 -0.10706,0.0347 -0.0145,0.005 -0.026,0.0148 -0.0392,0.0232 -0.32431,0.20284 -1.01775,0.36649 -1.28015,0.82405 -0.0292,0.0384 -0.0558,0.0787 -0.0779,0.12248 -0.034,0.0695 -0.0632,0.13892 -0.0723,0.21814 -0.0262,0.10278 -0.0515,0.20591 -0.0358,0.31356 0.0122,0.0904 0.0362,0.18165 0.0703,0.26482 0.0495,0.0929 0.10026,0.18613 0.16287,0.26955 0.0301,0.0397 0.0595,0.0774 0.0955,0.11087 0.0183,0.0172 0.0404,0.03 0.056,0.05 0.005,0.006 0.006,0.0139 0.009,0.0207 0,0 1.20763,-0.85293 1.20763,-0.85293 z" />
    <path
       style="fill:#d40000;fill-opacity:1;fill-rule:nonzero;stroke:none;stroke-width:0.224358"
       id="path74"
       d="m 103.5658,147.55007 c -0.009,-0.0505 0.0155,-0.0897 0.006,-0.14234 -0.002,-0.007 -0.007,-0.0134 -0.007,-0.021 8.1e-4,-0.0268 0.0314,-0.1085 0.0399,-0.14116 0.0436,-0.0563 0.0832,-0.11599 0.12738,-0.17231 0.0305,-0.0537 0.0756,-0.10003 0.0914,-0.16239 0.0107,-0.0816 0.0485,-0.15024 0.0875,-0.21921 0.0381,-0.0944 0.0672,-0.18905 0.11673,-0.27767 0.064,-0.11009 0.13572,-0.21301 0.2093,-0.31559 0.0478,-0.0834 0.1063,-0.15814 0.11737,-0.2584 0.0266,-0.10416 0.0407,-0.20973 0.0522,-0.31684 0.0231,-0.12109 0.0288,-0.24462 0.0352,-0.36777 0.0145,-0.11207 0.0321,-0.22462 0.0344,-0.33794 0.0133,-0.0942 -0.008,-0.18546 -0.0169,-0.27834 -0.0151,-0.0395 0.0187,-0.0886 0.01,-0.12725 -0.002,-0.0106 -0.0138,-0.0158 -0.0189,-0.0252 -0.004,-0.007 -0.0152,-0.0479 -0.0179,-0.0566 -0.002,-0.01 -0.004,-0.0194 -0.005,-0.0293 -8.1e-4,-0.023 0.004,-0.0459 0.007,-0.0689 0.002,-0.0337 -0.002,-0.0674 -0.003,-0.10109 0.004,-0.0622 0.004,-0.12458 0.003,-0.18691 0.005,-0.0277 -0.009,-0.0426 -0.0177,-0.0655 -0.003,-0.007 -0.002,-0.017 -0.007,-0.0236 -0.041,-0.0587 -0.008,0.0265 -0.0305,-0.0422 -0.0162,-0.0482 -0.0243,-0.0973 -0.0341,-0.14713 -0.0135,-0.048 -0.0305,-0.0949 -0.0422,-0.14367 -0.0259,-0.0404 -0.0524,-0.0791 -0.078,-0.11987 -0.0187,-0.005 -0.0168,-0.0508 -0.0275,-0.0602 -0.007,-0.005 -0.0162,-0.002 -0.0239,-0.005 -0.008,-0.003 -0.0227,-0.0158 -0.0294,-0.0212 -0.0156,-0.0175 -0.0225,-0.0469 -0.0401,-0.0621 -0.0407,-0.0351 0.002,0.0179 -0.0289,-0.0236 -0.0109,-0.0119 -0.0294,-0.0126 -0.0402,-0.0245 -0.016,-0.0175 -0.032,-0.0656 -0.037,-0.0894 -0.0123,-0.0348 -0.032,-0.0579 -0.0547,-0.0846 -0.0134,-0.026 -0.002,-0.0411 0.005,-0.0664 0.007,-0.0239 0.005,-0.0496 0.003,-0.0742 0.007,-0.0116 0.0156,-0.0217 0.0196,-0.0345 0.004,-0.0124 -0.004,-0.0265 -8.2e-4,-0.0391 0.009,-0.0338 0.0117,-0.0392 0.01,-0.0746 6.4e-4,-0.044 -0.0423,-0.0631 -0.0542,-0.10003 -0.009,-0.0272 -0.008,-0.0571 -0.0129,-0.0854 -0.0334,-0.0799 -0.0568,-0.16311 -0.094,-0.24151 -0.0266,-0.10046 -0.0731,-0.19208 -0.10041,-0.29203 -0.0267,-0.10447 -0.063,-0.20638 -0.0881,-0.31122 -0.0113,-0.0711 -0.023,-0.13809 -0.0535,-0.2028 -0.0117,-0.064 0.019,-0.12484 0.0224,-0.18893 -0.002,-0.008 -0.004,-0.0156 -0.003,-0.0234 8.1e-4,-0.01 0.006,-0.0188 0.008,-0.0286 0.008,-0.0378 0.008,-0.0761 0.0166,-0.1141 0.005,-0.0511 0.0441,-0.10225 0.0328,-0.15317 1e-5,-0.0516 0.0256,-0.0999 0.0415,-0.14791 0.002,-0.007 0.006,-0.0158 0.007,-0.0238 0.004,-0.0253 -0.004,-0.0186 0.009,-0.0429 0.0135,-0.0252 0.0284,-0.0414 0.0367,-0.0699 0.007,-0.0683 0.0723,-0.0925 0.10134,-0.14766 0.0107,-0.0391 4.4e-4,-0.0796 0.002,-0.12023 0.0187,-0.0592 0.007,-0.12132 0.003,-0.18201 -0.0143,-0.0864 0.002,-0.174 -0.0131,-0.26019 -0.002,-0.0121 -0.0146,-0.0716 -0.0214,-0.0828 -0.007,-0.0109 -0.0213,-0.0141 -0.0275,-0.0253 -0.0123,-0.0228 -0.007,-0.0725 -0.0111,-0.0987 -0.0255,-0.0542 -0.0286,-0.11504 -0.0356,-0.17411 -0.01,-0.0354 -0.0228,-0.071 -0.0189,-0.10836 -0.011,-0.0311 -0.023,-0.0617 -0.0332,-0.0936 -0.0193,-0.008 -0.0253,-0.0372 -0.0406,-0.0495 -0.0222,-0.018 -0.0569,-0.0253 -0.0817,-0.04 -0.0492,-0.079 -0.0847,-0.067 -0.16765,-0.0565 -0.0962,0.0122 -0.052,0.008 -0.13668,0.0113 0.0117,-0.0277 0.0221,-0.0633 0.0129,-0.0943 -0.002,-0.007 -0.0103,-0.0106 -0.0111,-0.0175 -0.002,-0.015 0.007,-0.0294 0.009,-0.0446 0.004,-0.002 0.0215,-0.0444 0.0122,-0.0503 -0.007,-0.004 -0.0227,0.007 -0.0229,-0.002 -1.1e-4,-0.005 0.0415,-0.0413 0.0529,-0.0513 0.0265,-0.0475 0.0452,-0.0699 0.0375,-0.1283 0.0115,-0.0416 -0.003,-0.0777 -0.009,-0.11855 -0.004,-0.006 -0.01,-0.0119 -0.0122,-0.0193 -0.005,-0.0179 0.007,-0.0394 -6.5e-4,-0.0562 -0.004,-0.01 -0.016,-0.0124 -0.0225,-0.0202 -0.0167,-0.0201 -0.0173,-0.031 -0.025,-0.0559 -0.003,-0.0536 8.1e-4,-0.10767 0.003,-0.16138 0,0 -0.0582,0.0318 -0.0582,0.0318 v 0 c -0.002,0.0557 -0.004,0.11187 -0.0131,0.16675 -0.0111,0.0398 -0.0114,0.0477 -0.0302,0.0857 -0.008,0.016 -0.0197,0.0295 -0.0261,0.0464 -0.0114,0.0299 0.002,0.07 -0.023,0.0959 -0.008,0.0466 -0.028,0.0892 -0.0277,0.13731 -0.002,0.0115 -0.0104,0.0681 -0.004,0.0778 0.0288,0.0431 0.0118,-0.0197 0.0204,0.0186 0.10935,-0.005 -0.0233,0.0194 0.0274,0.0706 0.004,0.0108 0.0147,0.0193 0.0158,0.0309 8.2e-4,0.008 -0.006,0.0181 -0.006,0.0273 -6.6e-4,0.0294 0.0129,0.0531 0.036,0.0669 -0.0684,0.0852 -0.0336,0.044 -0.11522,0.13498 -0.0693,0.0773 -0.10557,0.11287 -0.11654,0.22096 -0.0262,0.0682 -0.0602,0.12977 -0.0621,0.20556 0.007,0.0314 0.011,0.06 0.007,0.0921 0.0129,0.0341 0.0127,0.073 0.0182,0.1091 0.008,0.0637 0.0195,0.12712 0.019,0.1917 0.006,0.023 0.0237,0.06 0.0193,0.0843 -0.003,0.018 -0.0151,0.0329 -0.0192,0.0506 -0.002,0.011 -0.005,0.0829 -0.005,0.0941 -0.002,0.0838 0.0192,0.16811 -2.1e-4,0.25099 -0.01,0.0615 -0.0304,0.12278 -0.0258,0.18563 -0.008,0.0435 -0.0254,0.0814 -0.0374,0.12317 1.8e-4,0.003 0.002,0.0252 0.004,0.0261 0.0257,0.01 0.0811,-0.0359 0.0531,0.0301 -0.007,0.0181 -0.002,0.0306 -0.007,0.0481 -0.007,0.0304 -0.0313,0.0517 -0.0393,0.0817 -0.0222,0.0589 -0.042,0.11878 -0.0731,0.17323 -0.0287,0.0509 -0.0324,0.10797 -0.0476,0.1649 -0.0144,0.0636 -0.0358,0.12777 -0.0691,0.18235 -0.0388,0.0808 -0.0516,0.1637 -0.0588,0.25384 -0.0196,0.10416 -0.009,0.15678 0.0404,0.24622 0.0384,0.098 0.0711,0.19926 0.10481,0.29941 0.0335,0.1031 0.0501,0.21274 0.10236,0.30803 0.0347,0.0851 0.0926,0.15149 0.14683,0.22229 0.0213,0.0178 0.0463,0.031 0.0642,0.0526 0.0243,0.0293 0.0242,0.0763 0.0626,0.0928 0.0341,0.0248 0.0297,0.0172 0.0666,0.0282 0.0139,0.004 0.0221,0.0225 0.0363,0.0255 0.0134,0.003 0.027,-0.002 0.0406,-0.004 0.0403,0.0165 0.0907,0.0141 0.11637,0.0566 0.0115,0.029 0.0169,0.0589 0.0304,0.0872 0.0313,0.0458 0.0371,0.09 0.0238,0.14427 0.007,0.0567 -8.1e-4,-0.023 -0.002,0.0447 -6.5e-4,0.0256 0.0139,0.0517 0.0152,0.0772 -8.1e-4,0.0114 -0.002,0.0287 -0.005,0.0396 -0.003,0.01 -0.0114,0.0171 -0.0118,0.0271 -8.2e-4,0.0172 0.0287,0.0442 0.0217,0.065 0.008,0.0473 0.0109,0.0972 0.006,0.14482 0.0104,0.0521 0.0147,0.10574 0.0294,0.15656 0.016,0.0458 0.0288,0.0915 0.0363,0.14 0.003,0.0433 0.003,-6.9e-4 -0.0129,0.0522 -0.002,0.007 -4.3e-4,0.0151 -0.002,0.0226 -0.005,0.0275 -0.0174,0.0526 -0.009,0.0815 0.006,0.0567 0.008,0.11363 0.0123,0.1705 -0.003,0.0681 -0.004,0.13854 -0.0203,0.20421 -0.002,0.008 -0.022,0.0739 -0.0251,0.0819 -0.007,0.0166 -0.018,0.0311 -0.0222,0.0486 -0.009,0.0393 0.0171,0.0845 0.006,0.12413 -0.009,0.0983 -0.0287,0.19563 -0.0199,0.29508 -0.002,0.10363 0.004,0.2075 -0.002,0.31117 -0.0142,0.12057 -0.0262,0.24142 -0.0416,0.3618 -0.0204,0.10374 -0.0453,0.20637 -0.0564,0.31195 -0.0116,0.0385 -0.0252,0.0876 -0.0118,0.12865 0.003,0.01 0.0128,0.016 0.016,0.0258 0.003,0.0106 0.002,0.0222 0.003,0.0334 0.024,0.0335 0.011,0.0174 0.0394,0.048 0.0261,0.0338 0.0403,0.0777 0.0737,0.10655 0.0394,0.0752 0.0155,0.1236 0.0131,0.20468 0.0147,0.0631 0.007,0.12137 -0.0158,0.18171 -0.0204,0.0705 0.007,0.0421 0.009,0.077 0.002,0.0418 -0.0156,8.7e-4 4.3e-4,0.0309 0.008,0.0146 0.0183,0.0588 0.02,0.0608 0.004,0.005 0.0125,0.005 0.0164,0.0107 0.003,0.004 0.002,0.0116 0.004,0.0172 -0.0161,0.0611 -0.0277,0.12691 -0.0638,0.17796 -0.0346,0.0613 -0.0547,0.12976 -0.0946,0.18735 0,0 0.17871,-0.0911 0.17871,-0.0911 z" />
    <path
       style="fill:#d40000;fill-opacity:1;fill-rule:nonzero;stroke:none;stroke-width:0.224358"
       id="path76"
       d="m 103.23806,157.52351 c 0.0418,0.13492 0.0377,0.28004 0.0454,0.42072 0.002,0.10173 -0.0116,0.20343 -0.004,0.30489 -0.002,0.0717 0.005,0.14047 0.0173,0.21074 0.0154,0.11393 0.0463,0.23541 -6.5e-4,0.34223 -1.1e-4,0.0939 0.0117,0.12586 -0.0267,0.2115 -0.0323,0.051 -0.0372,0.10088 -0.0718,0.14416 -0.0314,0.0333 -0.0692,0.0565 -0.10872,0.0747 -0.0218,0.015 -0.0427,0.0316 -0.0602,0.0514 2.09285,-1.31596 0.23788,-0.12384 0.0505,-0.004 -0.0154,0.0561 -0.018,0.11934 -0.0286,0.17822 -0.0283,0.0828 -0.0492,0.16934 -0.0813,0.2503 -0.0254,0.0844 -0.0357,0.17279 -0.0477,0.26034 -0.0211,0.14592 -0.0182,0.29458 -0.0324,0.44161 -0.004,0.15059 0.0336,0.29903 0.0515,0.44815 0.0175,0.12896 0.0287,0.25834 0.0319,0.38859 -0.0318,0.10014 -0.003,0.19875 0.023,0.2963 0.0369,0.16827 0.10965,0.32136 0.17894,0.47594 0.0585,0.15577 0.13435,0.30185 0.20457,0.45155 0.008,0.0602 0.0164,0.17153 -0.0332,0.21908 -0.0169,0.0162 -0.0417,0.0181 -0.0623,0.028 -0.33895,0.20291 -0.76466,0.49738 0.79808,-0.50812 0.0347,-0.0223 -0.0719,0.04 -0.10806,0.0595 -0.0691,0.0373 -0.13889,0.0733 -0.20823,0.11022 -0.89547,0.50187 -1.16719,0.38145 -1.18917,1.18785 0.0151,0.31711 0.12858,0.61059 0.22759,0.90497 0.0745,0.25622 0.18997,0.49151 0.29247,0.7346 0.07,0.14394 0.0987,0.30765 0.16764,0.45113 0.0548,0.14748 0.0828,0.30305 0.10978,0.45853 0.0262,0.16685 0.0538,0.33345 0.081,0.50018 0.0134,0.12674 0.0195,0.25504 0.0168,0.38256 0.008,0.13476 0.002,0.2689 -0.006,0.40338 -0.007,0.11078 -0.006,0.21359 -0.0705,0.302 -0.0404,0.0607 -0.0622,0.13248 -0.10182,0.19341 -0.0623,0.0547 -0.11691,0.11393 -0.15149,0.19289 -0.0503,0.1274 -0.10549,0.25172 -0.13336,0.38748 2.2e-4,0.1839 -0.023,0.36497 -0.0165,0.54894 0.0212,0.21819 0.0908,0.42535 0.12861,0.64167 0.0228,0.15909 0.0565,0.31576 0.074,0.47574 0.0116,0.15644 -0.0114,0.31275 -0.0419,0.46522 -0.0584,0.21239 -0.0876,0.43156 -0.12003,0.64985 -0.042,0.2293 -0.0454,0.4629 -0.0459,0.69565 0.0106,0.22415 2e-5,0.4482 6e-5,0.67249 -0.005,0.2824 -0.006,0.56383 -0.0174,0.84613 0.005,0.0418 0.008,0.0839 0.0156,0.12524 0.0435,0.24599 0.0138,-0.0197 0.0454,0.2414 0.016,0.13254 0.0156,0.263 0.0344,0.39525 0.0296,0.25589 0.0674,0.50982 0.10279,0.76443 0.06,0.23953 0.0399,0.48041 -0.0191,0.71672 -0.0366,0.16042 -0.14196,0.28331 -0.18225,0.44141 -0.0301,0.25112 -0.0377,0.50142 0.0256,0.74633 0.0505,0.23304 0.13553,0.45432 0.20003,0.68286 0.0567,0.14641 0.0776,0.29673 0.0599,0.45371 -0.031,0.14259 -0.0701,0.28167 -0.0999,0.42443 -0.0205,0.1542 -0.0618,0.30316 -0.0923,0.45534 -0.0273,0.17433 -0.0236,0.35132 -0.0441,0.52661 -0.007,0.12493 -0.0299,0.2463 -0.0544,0.36822 -0.0137,0.0869 -0.0291,0.17324 -0.0469,0.25917 -0.007,0.0733 -0.045,0.13641 -0.0548,0.20848 -0.006,0.0922 -0.004,0.18403 -0.005,0.27619 -0.0116,0.0665 0.0432,0.0885 0.0577,0.14348 0.009,0.0347 0.0123,0.071 0.0204,0.10594 0.0311,0.12361 -0.0115,0.23848 0.12064,0.29229 0.0581,0.0998 0.13657,0.1837 0.23568,0.2325 0.0249,0.0463 0.0616,0.0809 0.0975,0.11657 0,0 0.0554,-0.0372 0.0554,-0.0372 v 0 c -0.0357,-0.0352 -0.0721,-0.0691 -0.0967,-0.11509 1.6e-4,-0.11997 -0.057,-0.20369 -0.0956,-0.31363 0.0508,-0.12348 0.0155,-0.23708 0.0243,-0.36765 0.007,-0.1119 0.0213,-0.20881 0.0507,-0.3156 0.002,-0.0923 0.008,-0.18676 0.0312,-0.27597 0.0237,-0.073 0.0451,-0.14639 0.0722,-0.21796 0.0198,-0.0857 0.0273,-0.1734 0.0452,-0.25971 0.024,-0.1209 0.0341,-0.24377 0.0336,-0.36763 -0.003,-0.17443 0.0163,-0.34859 0.0506,-0.51896 0.0347,-0.15699 0.082,-0.31036 0.11633,-0.46745 0.0323,-0.14375 0.0727,-0.28574 0.0948,-0.43176 0.008,-0.16447 -0.0234,-0.31962 -0.0794,-0.47277 -0.0819,-0.2154 -0.1704,-0.42967 -0.23192,-0.65277 -0.0187,-0.25713 -0.0107,-0.51753 0.0727,-0.76231 0.0654,-0.14859 0.15936,-0.28292 0.17693,-0.45137 0.0239,-0.24915 0.0498,-0.49716 0.0291,-0.7483 -0.0369,-0.25555 -0.0852,-0.5121 -0.0707,-0.77201 0.0261,-0.29225 0.0403,-0.58411 0.11012,-0.86979 0.007,-0.28763 0.0243,-0.57353 0.0442,-0.86038 0.016,-0.23063 0.0183,-0.46165 0.0375,-0.69203 0.0194,-0.23442 0.0485,-0.46766 0.0841,-0.69985 0.0443,-0.22999 0.1094,-0.45065 0.17696,-0.6736 0.0409,-0.17487 0.10247,-0.3553 0.0761,-0.53742 -0.0313,-0.15462 -0.0733,-0.30657 -0.11279,-0.45893 -0.0468,-0.21469 -0.0662,-0.43095 -0.0674,-0.65172 -0.003,-0.17657 -0.006,-0.35954 0.0602,-0.52452 0.0537,-0.13563 0.11638,-0.26722 0.2042,-0.38112 0.0484,-0.0578 0.095,-0.11449 0.1194,-0.18942 0.0278,-0.0652 0.0745,-0.14553 0.0557,-0.21792 -0.0549,-0.0648 -0.033,-0.1796 -0.0435,-0.26143 -0.003,-0.13847 0.007,-0.27573 0.011,-0.41386 -0.011,-0.12796 -0.0218,-0.25572 -0.0432,-0.38241 -0.0195,-0.17208 -0.0403,-0.34388 -0.049,-0.51715 -0.0147,-0.1691 -0.0418,-0.33633 -0.098,-0.49569 -0.0384,-0.16091 -0.11757,-0.31211 -0.19339,-0.45567 -0.13458,-0.21484 -0.24302,-0.44936 -0.33265,-0.68991 -0.10028,-0.28036 -0.19846,-0.57143 -0.18031,-0.87713 0.0124,-0.12054 0.0229,-0.23888 0.0943,-0.33883 0.0183,-0.0256 0.0911,-0.0824 0.0648,-0.0669 -0.15505,0.0907 -1.23638,0.76674 -0.79346,0.48991 0.51237,-0.26657 1.11745,-0.46249 1.48458,-0.93856 0.0353,-0.16356 -0.10609,-0.14342 -0.19486,-0.22858 -0.0834,-0.13779 -0.17504,-0.27054 -0.24259,-0.41863 -0.0643,-0.15047 -0.12077,-0.30377 -0.16302,-0.46326 -0.016,-0.0917 0.004,-0.19628 -0.0495,-0.27319 -0.0339,-0.11532 -0.0921,-0.22241 -0.10232,-0.34552 -0.0201,-0.1432 -0.0468,-0.28541 -0.0527,-0.43039 -0.003,-0.1462 0.0112,-0.29063 0.0415,-0.43322 0.0186,-0.0889 0.0447,-0.17478 0.0633,-0.26345 -6.5e-4,-0.0762 0.0377,-0.15045 0.0417,-0.22717 0.0182,-0.0558 0.0331,-0.12495 0.0843,-0.1539 -0.21938,0.13797 -0.43875,0.27594 -0.65813,0.41391 0.006,-0.003 0.0194,-0.0106 0.0169,-0.004 -0.002,0.005 -0.0388,0.0479 -0.0376,0.047 0.29938,-0.18181 0.59508,-0.37064 0.89261,-0.55596 0.0301,-0.0212 0.0617,-0.0401 0.0884,-0.0666 0.0255,-0.0367 0.0467,-0.0664 0.0277,-0.11155 -0.004,-0.0618 -0.004,-0.10405 -0.064,-0.12965 -0.0511,-0.0367 -0.0862,-0.0838 -0.13422,-0.12466 -0.0899,-0.038 -0.10843,-0.16809 -0.16563,-0.24826 -0.0239,-0.0566 -0.0462,-0.11383 -0.0609,-0.17411 -0.0148,-0.0921 -0.0301,-0.18399 -0.0419,-0.27677 -0.0148,-0.14002 -0.0572,-0.2745 -0.0594,-0.4156 0,0 -0.36609,0.20928 -0.36609,0.20928 z" />
    <path
       style="fill:#d40000;fill-opacity:1;fill-rule:nonzero;stroke:none;stroke-width:0.224358"
       id="path78"
       d="m 102.44173,178.89876 c 0.14627,0.0668 0.27922,0.16264 0.39911,0.27451 0.10643,0.10395 0.19892,0.22106 0.28416,0.34537 0.0964,0.0996 0.15033,0.22812 0.21607,0.35056 0.0366,0.0988 0.0878,0.17583 0.16797,0.23719 0.13753,0.15407 0.19912,0.13443 0.39736,0.0874 0,0 0.0559,-0.0364 0.0559,-0.0364 v 0 c 0.11934,-0.16702 0.15777,-0.21256 0.0187,-0.363 -0.0457,-0.0818 -0.10509,-0.1521 -0.15823,-0.2282 -0.0707,-0.12131 -0.14083,-0.2434 -0.22107,-0.35758 -0.10029,-0.11911 -0.21073,-0.22958 -0.3253,-0.33213 -0.12847,-0.10278 -0.26438,-0.19389 -0.39749,-0.28939 0,0 -0.43717,0.31157 -0.43717,0.31157 z" />
    <path
       style="fill:#d40000;fill-opacity:1;fill-rule:nonzero;stroke:none;stroke-width:0.224358"
       id="path80"
       d="m 103.37792,137.79233 c -0.0367,-0.22863 0.02,-0.45784 0.0643,-0.68026 0.0383,-0.20414 0.0806,-0.40999 0.16476,-0.5983 0.0512,-0.1223 0.11796,-0.23533 0.18916,-0.34475 0.0376,-0.0509 0.0665,-0.10656 0.10658,-0.15526 0.0616,-0.0792 0.10501,-0.17138 0.15317,-0.2603 0.0849,-0.14922 0.12642,-0.31949 0.19686,-0.47608 0.0855,-0.15643 0.12504,-0.33381 0.15626,-0.51035 0.01,-0.0527 0.0281,-0.10405 0.0292,-0.15769 8.1e-4,-0.0477 -0.0153,-0.0942 -0.0231,-0.14133 -0.0383,-0.2934 -0.16614,-0.55968 -0.28136,-0.8245 -0.12792,-0.23597 -0.24464,-0.47834 -0.35951,-0.7219 -0.16451,-0.32484 -0.17167,-0.59615 -0.10052,-0.95123 0.0858,-0.3569 0.28051,-0.63259 0.53934,-0.86159 0.25691,-0.1851 0.27324,-0.20029 0.16846,-0.52802 -0.12481,-0.34448 -0.24831,-0.6954 -0.29772,-1.06298 -0.0213,-0.18192 -0.0551,-0.35529 -0.008,-0.53423 0.023,-0.14618 0.0645,-0.27184 0.13312,-0.3995 0.0962,-0.17006 0.0845,-0.36476 0.0816,-0.55562 -0.0168,-0.23541 -0.0864,-0.46065 -0.13347,-0.69005 -0.0408,-0.20155 -0.0747,-0.40494 -0.10407,-0.60884 -0.0348,-0.18311 -0.0497,-0.36818 -0.0545,-0.55477 0.003,-0.30825 0.009,-0.61568 0.01,-0.92401 0.008,-0.34794 0.0389,-0.69374 0.0391,-1.04199 -0.002,-0.30913 0.007,-0.61834 2.2e-4,-0.92746 -0.0312,-0.35492 -0.0651,-0.7086 -0.0803,-1.065 -0.0353,-0.16208 0.0301,-0.39876 -0.0477,-0.54402 -0.10775,-0.0874 -0.23349,-0.034 -0.35459,-0.0106 0,0 -0.0583,0.0314 -0.0583,0.0314 v 0 c -0.13906,0.12359 -0.28786,0.23197 -0.36448,0.41453 -0.0447,0.17932 0.0347,0.36786 0.049,0.54838 0.0551,0.34815 0.10061,0.69759 0.085,1.05222 -4e-5,0.30822 0.004,0.61621 0.003,0.92438 -1.5e-4,0.33415 0.0296,0.66564 0.0382,0.99943 0.002,0.30357 0.003,0.60584 0.0275,0.90866 0.0153,0.18578 0.0403,0.37064 0.0794,0.55241 0.0429,0.19891 0.0943,0.39445 0.14094,0.59232 0.0587,0.2209 0.12801,0.44242 0.126,0.6752 0.003,0.18573 -0.0208,0.36542 -0.11355,0.52574 -0.0966,0.16411 -0.21681,0.31423 -0.28013,0.49824 -0.0502,0.20081 -0.0832,0.39674 -0.0215,0.6017 0.0439,0.17449 0.0726,0.35059 0.11107,0.52628 0.0419,0.19105 0.10604,0.37773 0.10892,0.57703 -0.002,0.26246 -0.0365,0.25249 -0.19115,0.42295 -0.21374,0.26084 -0.38321,0.55082 -0.46326,0.89332 -0.07,0.36162 -0.0817,0.71204 0.052,1.06009 0.11715,0.24681 0.27844,0.46365 0.41573,0.69742 0.1628,0.21693 0.30302,0.4545 0.37832,0.72422 0.0821,0.46452 -0.0406,-0.16149 0.0723,0.23273 0.0371,0.12963 -8.1e-4,0.2718 0.003,0.40312 -0.0379,0.16188 -0.10822,0.31185 -0.18328,0.45714 -0.0568,0.0936 -0.12088,0.18054 -0.18595,0.26724 -0.0341,0.048 -0.0656,0.0991 -0.0877,0.15493 -0.0586,0.11865 -0.12859,0.23026 -0.1789,0.35364 -0.0358,0.19109 -0.0643,0.38368 -0.10265,0.57426 -0.0444,0.24461 -0.0845,0.49033 -0.13823,0.73254 0,0 0.49103,-0.27117 0.49103,-0.27117 z" />
    <path
       style="fill:#d40000;fill-opacity:1;fill-rule:nonzero;stroke:none;stroke-width:0.224358"
       id="path11"
       d="m 58.615292,150.4771 c 0.07094,-0.005 0.12066,-0.0686 0.169741,-0.11836 0.06166,-0.0663 0.09752,-0.15007 0.125936,-0.23737 0.02729,-0.0729 0.03591,-0.14926 0.04382,-0.22666 0.0073,-0.0805 -0.0024,-0.1598 -0.02574,-0.23617 -0.03461,-0.0695 -0.08023,-0.13314 -0.129399,-0.19143 -0.0338,-0.0386 -0.07127,-0.0734 -0.11024,-0.10575 -0.459407,-0.13145 -1.377985,-0.85384 1.197922,0.76469 0.0041,0.003 -0.0073,-0.006 -0.01197,-0.007 -0.03747,-0.018 0.0041,0.0106 -0.03453,-0.0186 -0.03339,-0.0293 -0.07289,-0.0449 -0.10964,-0.0676 -0.03347,-0.0277 -0.07387,-0.0277 -0.1138,-0.0309 -0.03144,-0.007 -0.06272,-0.0107 -0.09491,-0.0125 -0.03413,-0.004 -0.06622,-0.0138 -0.101012,-0.0172 -0.03689,-0.003 -0.07387,-0.004 -0.11078,-0.006 -0.03616,-0.004 -0.07143,-7.1e-4 -0.107753,0.002 -0.03608,-0.003 -0.06475,0.0222 -0.0941,0.0414 -0.03567,0.0198 -0.06914,0.0441 -0.104848,0.0639 -0.04724,0.04 -0.06818,0.10151 -0.08892,0.16025 -0.0167,0.08 -0.03257,0.15767 -0.03591,0.24012 -0.0096,0.0963 0.01063,0.1858 0.03567,0.27693 0.02003,0.0575 0.05506,0.105 0.09853,0.14368 0.04178,0.0433 0.08922,0.0786 0.140133,0.10796 0.05864,0.0436 0.121498,0.0813 0.173886,0.13378 0.05734,0.0586 0.121441,0.10902 0.182299,0.16339 0.06769,0.0486 0.127436,0.10808 0.186414,0.16846 0.07281,0.073 0.152758,0.13641 0.225435,0.20962 0.0689,0.0973 0.162182,0.16495 0.248999,0.2412 0.07607,0.0561 0.138064,0.12465 0.173813,0.21684 0.04594,0.16346 0.151048,0.29054 0.253299,0.41593 0.03705,0.0524 0.08532,0.10342 0.0932,0.17211 0.0041,0.0318 0.0016,0.0638 0.0041,0.0957 0.0024,0.0164 0.0032,0.0329 0.0066,0.0492 0.0024,0.0161 0.0082,0.0316 0.01008,0.0477 0.0082,0.0687 -0.0073,0.14292 -0.0084,0.21209 -0.03005,0.15029 -0.02697,0.30438 -0.04862,0.45592 -0.0057,0.0914 -0.02582,0.18012 -0.03975,0.26991 -0.0048,0.0307 -0.0048,0.0621 -0.01063,0.0926 -0.0118,0.0631 -0.03152,0.12411 -0.04618,0.18645 -0.0066,0.0303 -0.01393,0.0604 -0.02069,0.0906 -0.0066,0.0301 -0.01156,0.0607 -0.01979,0.0903 -0.02566,0.0921 -0.06989,0.17613 -0.09867,0.26674 -0.0088,0.0276 -0.01409,0.0566 -0.02117,0.0849 -0.03152,0.14225 -0.11169,0.25575 -0.202662,0.35973 -0.06142,0.0873 -0.134147,0.16027 -0.215182,0.22518 -0.07641,0.0557 -0.15911,0.10014 -0.239941,0.14759 -0.07794,0.0334 -0.157971,0.0612 -0.242205,0.0605 -0.05319,0.003 -0.105682,-0.007 -0.158476,-0.0111 -0.04431,-0.01 -0.08867,-0.0182 -0.133675,-0.0229 -0.04512,-0.0197 -0.09349,-0.0273 -0.139336,-0.0447 -0.4748,-0.19522 -0.07713,-0.0302 -1.277271,-0.80214 -0.0032,-0.002 0.0057,-0.006 0.0057,-0.0106 -1.95e-4,-0.005 -0.0032,-0.0106 -0.0066,-0.0141 -0.0048,-0.006 -0.03422,-0.0286 -0.0387,-0.0321 -0.04602,-0.0451 -0.08862,-0.0951 -0.129708,-0.14555 -0.02957,-0.0415 -0.0514,-0.0868 -0.0751,-0.13223 -0.0073,-0.0285 -0.02981,-0.0548 -0.03135,-0.0848 -8.14e-4,-0.0165 0.0032,-0.033 0.0041,-0.0495 -0.01041,-0.0651 -0.01214,-0.12957 -0.02623,-0.19445 0.0066,-0.0788 0.0024,-0.15856 0.01173,-0.23784 8.14e-4,-0.11623 0.04798,-0.22226 0.06133,-0.33593 0.01063,-0.11596 0.03894,-0.22739 0.05294,-0.34309 0.0024,-0.0167 0.0032,-0.034 0.0082,-0.0503 0.0041,-0.0173 0.03225,-0.0853 0.03755,-0.10131 0.01629,-0.0495 0.02501,-0.10024 0.04227,-0.14958 0.0211,-0.0893 0.07437,-0.15988 0.115951,-0.2381 0.03591,-0.0677 0.09153,-0.11768 0.138334,-0.17615 0.0093,-0.007 0.01873,-0.0141 0.0281,-0.0211 0.02395,-0.0179 0.03087,-0.0212 0.05098,-0.0429 0.0016,-0.002 0.02843,-0.0364 0.03104,-0.0382 0.0087,-0.006 0.01931,-0.007 0.02899,-0.0123 0.0073,-0.004 0.01474,-0.005 0.02167,-0.01 0.01,-0.005 0.01694,-0.0164 0.02712,-0.0213 0.01442,-0.007 0.03177,-0.002 0.04716,-0.007 0.02607,-0.0174 0.05905,-0.007 0.08691,-0.0168 2.302579,1.29189 0.916018,0.19352 1.017277,0.76217 0.0082,0.0307 0.0083,0.0667 0.01922,0.0962 -0.0103,0.0262 -0.0103,0.0556 -0.01987,0.0825 0.0016,0.0375 -0.009,0.0742 -0.01955,0.10941 -0.02045,0.045 -0.02093,0.0952 -0.03201,0.14199 6.43e-4,0.0296 -1.47e-4,0.0582 -0.01165,0.0853 -0.0073,0.0269 -0.0024,0.0549 -0.0082,0.0821 -0.0024,0.0277 -0.0048,0.0549 -0.0032,0.0829 -0.0048,0.041 -0.0259,0.0547 -0.01573,0.10289 -0.0032,0.0214 0.01287,0.0452 0.0048,0.0648 -0.04365,-0.0112 -0.165863,-0.0852 -0.199248,-0.10447 -0.104969,-0.0606 -0.209066,-0.12309 -0.31359,-0.18462 0,0 0.05807,0.0321 0.05807,0.0321 v 0 c -0.164757,-0.085 -0.355535,-0.17063 -0.512846,-0.27732 -0.0057,-0.0199 0.0057,-0.0382 0.0048,-0.0594 0.01156,-0.0422 -0.01442,-0.0803 -0.01588,-0.12103 0.0016,-0.0323 -8.14e-4,-0.0644 0.0016,-0.0966 8.14e-4,-0.0318 0.01345,-0.0589 0.01955,-0.0892 -1.23e-4,-0.0314 0.0073,-0.0634 0.02435,-0.0892 0.0123,-0.041 0.03599,-0.0779 0.03275,-0.12434 -8.16e-4,-0.0343 -0.0073,-0.0681 -0.0083,-0.10226 -0.0092,-0.0307 -0.01108,-0.0628 -0.02737,-0.0904 0.0041,-0.0236 -0.0032,-0.054 -0.0057,-0.077 -0.0048,-0.0185 -0.01041,-0.0429 -0.02525,-0.0557 -0.01,-0.008 -0.0492,-0.0128 -0.03819,-0.005 0.333819,0.21443 0.672053,0.4207 1.008073,0.63105 -0.0066,-0.0234 -0.0224,-0.0286 -0.0435,-0.0307 -0.01718,-0.002 -0.01303,0.007 -0.02875,0.007 -0.01515,2.2e-4 -0.02891,-0.0107 -0.04357,-1.6e-4 -0.0365,0.0293 -0.08579,0.0255 -0.114029,0.0855 -0.05245,0.0405 -0.0969,0.0887 -0.137634,0.143 -0.04888,0.0621 -0.08439,0.1333 -0.123321,0.20305 -0.01922,0.0428 -0.04431,0.0831 -0.05848,0.12819 -0.02191,0.0697 -0.0041,0.0329 -0.02249,0.10141 -0.0041,0.0146 -0.01019,0.0284 -0.01523,0.0426 -0.03567,0.10406 -0.05424,0.21011 -0.07445,0.31867 -0.01963,0.11711 0.0048,0.2341 0.01604,0.35116 0.01636,0.085 0.02639,0.17414 0.0623,0.25258 0.01311,0.0725 0.04365,0.13664 0.07119,0.20357 0.02428,0.0418 0.0544,0.0789 0.07851,0.12093 0.02288,0.0374 0.04668,0.0727 0.07949,0.10119 0.04415,0.0467 0.09069,0.0892 0.142666,0.12563 0.02574,0.0221 0.04984,0.0444 0.07974,0.0599 0.01376,0.007 0.05522,0.0275 0.04212,0.0192 -1.245539,-0.79252 -1.567076,-1.1023 -1.201132,-0.75188 0.02705,0.0261 0.05424,0.0357 0.08959,0.0412 0.03225,0.0208 0.06858,0.0186 0.10498,0.0231 0.04912,0.0137 0.100311,0.0185 0.150087,0.0291 0.06116,0.006 0.118086,0.003 0.175214,-0.0257 0.0817,-0.0249 0.160407,-0.0601 0.232367,-0.10935 0.07949,-0.0543 0.156187,-0.11365 0.230738,-0.17562 0.08047,-0.0877 0.155446,-0.1789 0.215987,-0.28463 0.01352,-0.0226 0.0294,-0.0438 0.04065,-0.0679 0.03804,-0.0813 0.05156,-0.17386 0.07469,-0.26055 0.0073,-0.0277 0.01702,-0.0548 0.02428,-0.0826 0.0073,-0.029 0.01318,-0.0584 0.01987,-0.0876 0.03233,-0.17874 0.0501,-0.35979 0.06239,-0.54146 -0.0024,-0.1627 -0.0048,-0.32538 -0.03812,-0.48482 -0.0073,-0.099 -0.03209,-0.19437 -0.04837,-0.29157 -0.02907,-0.0712 -0.08007,-0.12777 -0.104213,-0.20223 -0.06166,-0.15163 -0.141754,-0.29172 -0.257192,-0.40313 -0.07314,-0.0666 -0.147903,-0.13113 -0.217657,-0.2018 -0.08088,-0.0781 -0.150192,-0.1694 -0.238345,-0.23867 -0.07437,-0.0658 -0.143937,-0.1371 -0.216949,-0.20464 -0.06337,-0.0535 -0.128877,-0.10458 -0.186951,-0.1647 -0.05921,-0.0521 -0.116764,-0.10656 -0.177551,-0.15631 -0.05091,-0.0355 -0.09931,-0.0753 -0.143676,-0.12003 -0.03584,-0.0436 -0.0711,-0.0897 -0.09196,-0.14411 -0.0215,-0.0623 -0.02663,-0.12682 -0.0197,-0.1929 0.0092,-0.0908 0.03005,-0.18045 0.02647,-0.27312 0.01,-0.0941 0.0082,-0.19636 0.04838,-0.28185 0.0032,-0.008 0.02639,-0.0768 0.03014,-0.0839 0.0057,-0.0106 0.01498,-0.018 0.02167,-0.0276 0.02224,-0.0325 0.03933,-0.0691 0.05995,-0.10279 0.02851,-0.048 0.06532,-0.0814 0.109933,-0.11141 0.03957,-0.0261 0.08039,-0.0486 0.118361,-0.0779 0.04275,-0.0197 0.08444,-0.027 0.130434,-0.0335 0.036,-0.004 0.072,-0.004 0.108103,-0.004 0.03649,1.5e-4 0.07338,-0.004 0.108202,0.005 0.03332,0.008 0.06793,0.005 0.101725,0.0122 0.04537,0.0127 0.08996,0.0184 0.137056,0.0155 0.03633,0.007 0.072,0.023 0.107062,0.0347 0.0145,0.005 0.02598,0.0149 0.03918,0.0232 0.324307,0.20282 1.01775,0.36648 1.280147,0.82404 0.02915,0.0384 0.05579,0.0786 0.07787,0.12247 0.03396,0.0695 0.0632,0.13892 0.07232,0.21814 0.02623,0.10279 0.05148,0.20592 0.03584,0.31356 -0.01222,0.0904 -0.03624,0.18167 -0.07029,0.26482 -0.04951,0.0929 -0.100267,0.18614 -0.162874,0.26957 -0.03005,0.0397 -0.05947,0.0774 -0.09548,0.11087 -0.01832,0.0171 -0.0404,0.03 -0.05604,0.05 -0.0048,0.006 -0.0057,0.0139 -0.0089,0.0207 0,0 -1.207633,-0.85292 -1.207633,-0.85292 z" />
    <path
       style="fill:#d40000;fill-opacity:1;fill-rule:nonzero;stroke:none;stroke-width:0.224358"
       id="path13"
       d="m 58.877233,147.58702 c 0.0087,-0.0505 -0.01547,-0.0897 -0.0057,-0.14233 0.0024,-0.007 0.0073,-0.0134 0.0073,-0.021 -8.14e-4,-0.0268 -0.03136,-0.10849 -0.03991,-0.14116 -0.04357,-0.0563 -0.08321,-0.11598 -0.127378,-0.1723 -0.03054,-0.0537 -0.07559,-0.10003 -0.09143,-0.16239 -0.01074,-0.0817 -0.04846,-0.15024 -0.08749,-0.21922 -0.03812,-0.0944 -0.0672,-0.18906 -0.116733,-0.27767 -0.06402,-0.11008 -0.135727,-0.21301 -0.209302,-0.31558 -0.04773,-0.0834 -0.106262,-0.15814 -0.117368,-0.2584 -0.02656,-0.10416 -0.04064,-0.20973 -0.05212,-0.31686 -0.02312,-0.12107 -0.02883,-0.2446 -0.03519,-0.36775 -0.01442,-0.11208 -0.03201,-0.22462 -0.03437,-0.33794 -0.01328,-0.0942 0.0073,-0.18546 0.01687,-0.27834 0.01515,-0.0395 -0.01873,-0.0886 -0.0099,-0.12725 0.0024,-0.0106 0.01384,-0.0158 0.01881,-0.0252 0.0041,-0.007 0.01531,-0.0479 0.01784,-0.0567 0.0016,-0.01 0.0048,-0.0194 0.0057,-0.0293 8.14e-4,-0.023 -0.0048,-0.0459 -0.0066,-0.0689 -0.0016,-0.0338 0.0016,-0.0674 0.0032,-0.10108 -0.0048,-0.0621 -0.0041,-0.12458 -0.0032,-0.1869 -0.0057,-0.0277 0.0087,-0.0425 0.01759,-0.0654 0.0032,-0.007 0.0016,-0.017 0.0066,-0.0236 0.04098,-0.0587 0.0073,0.0265 0.03047,-0.0422 0.01621,-0.0482 0.02435,-0.0973 0.03413,-0.1471 0.01352,-0.0481 0.03046,-0.095 0.04219,-0.14367 0.02582,-0.0404 0.05237,-0.0791 0.07803,-0.11988 0.01881,-0.005 0.01678,-0.0508 0.02753,-0.0602 0.0066,-0.005 0.01621,-0.002 0.02387,-0.005 0.0082,-0.003 0.02273,-0.0158 0.0294,-0.0212 0.01556,-0.0175 0.02249,-0.0469 0.04015,-0.0621 0.04073,-0.0351 -0.0016,0.0179 0.02891,-0.0236 0.01085,-0.0118 0.0294,-0.0126 0.04023,-0.0245 0.01597,-0.0175 0.03201,-0.0656 0.03698,-0.0894 0.0123,-0.0348 0.03201,-0.0579 0.05473,-0.0846 0.01336,-0.026 0.0016,-0.0411 -0.0048,-0.0664 -0.0066,-0.0239 -0.0048,-0.0497 -0.0032,-0.0742 -0.0066,-0.0117 -0.01556,-0.0217 -0.01963,-0.0345 -0.0041,-0.0124 0.0041,-0.0265 8.16e-4,-0.0391 -0.0085,-0.0338 -0.01173,-0.0392 -0.01,-0.0746 -6.45e-4,-0.044 0.04227,-0.0631 0.05424,-0.10003 0.0088,-0.0272 0.0082,-0.0571 0.01294,-0.0854 0.03339,-0.0799 0.05686,-0.16312 0.09403,-0.24152 0.02656,-0.10045 0.07314,-0.19208 0.10041,-0.29202 0.02671,-0.10448 0.06304,-0.20638 0.08811,-0.31123 0.01132,-0.0711 0.02305,-0.1381 0.05352,-0.2028 0.01173,-0.0641 -0.01898,-0.12484 -0.0224,-0.18893 0.0016,-0.007 0.0041,-0.0156 0.0032,-0.0234 -8.14e-4,-0.01 -0.0057,-0.0188 -0.0082,-0.0287 -0.0082,-0.0378 -0.0082,-0.0761 -0.01661,-0.1141 -0.0048,-0.0511 -0.04407,-0.10236 -0.03282,-0.15317 -1.7e-5,-0.0517 -0.02557,-0.0999 -0.04154,-0.14792 -0.0024,-0.007 -0.0057,-0.0157 -0.0066,-0.0238 -0.0041,-0.0253 0.0041,-0.0186 -0.0087,-0.0429 -0.01352,-0.0252 -0.02843,-0.0414 -0.03674,-0.0699 -0.0066,-0.0683 -0.07233,-0.0925 -0.101341,-0.14766 -0.01074,-0.0391 -4.32e-4,-0.0796 -0.0024,-0.12023 -0.01873,-0.0591 -0.0066,-0.12132 -0.0032,-0.18201 0.01433,-0.0865 -0.0016,-0.17401 0.01311,-0.2602 0.0024,-0.0121 0.01459,-0.0716 0.02143,-0.0828 0.0066,-0.0109 0.02134,-0.0141 0.02745,-0.0253 0.0123,-0.0228 0.0073,-0.0725 0.01108,-0.0986 0.02549,-0.0542 0.02859,-0.11504 0.0356,-0.17411 0.0096,-0.0353 0.02281,-0.071 0.01889,-0.10836 0.011,-0.0311 0.02297,-0.0617 0.03323,-0.0936 0.0193,-0.008 0.02533,-0.0372 0.04064,-0.0494 0.02224,-0.018 0.05693,-0.0253 0.08165,-0.04 0.0492,-0.079 0.08475,-0.067 0.167657,-0.0565 0.09618,0.0122 0.05196,0.008 0.13668,0.0113 -0.01173,-0.0277 -0.02215,-0.0633 -0.01287,-0.0944 0.0016,-0.007 0.0103,-0.0106 0.01108,-0.0175 0.0016,-0.015 -0.0066,-0.0294 -0.0092,-0.0446 -0.0041,-0.002 -0.0215,-0.0443 -0.01222,-0.0503 0.0066,-0.004 0.02273,0.007 0.02288,-0.002 1.05e-4,-0.005 -0.04154,-0.0413 -0.05295,-0.0513 -0.02647,-0.0475 -0.0452,-0.0699 -0.03755,-0.1283 -0.01149,-0.0416 0.0032,-0.0777 0.0088,-0.11856 0.0041,-0.006 0.01,-0.0117 0.01222,-0.0193 0.0048,-0.0179 -0.0066,-0.0394 6.52e-4,-0.0562 0.0041,-0.01 0.01597,-0.0124 0.02248,-0.0202 0.0167,-0.0201 0.01735,-0.031 0.02501,-0.0559 0.0032,-0.0536 -8.15e-4,-0.10765 -0.0032,-0.16136 0,0 0.05816,0.0318 0.05816,0.0318 v 0 c 0.0024,0.0557 0.0041,0.11187 0.01311,0.16675 0.01108,0.0398 0.0114,0.0477 0.03021,0.0857 0.0082,0.016 0.01971,0.0295 0.02607,0.0464 0.0114,0.0299 -0.0024,0.07 0.02297,0.0958 0.0083,0.0466 0.02802,0.0892 0.0277,0.13732 0.0024,0.0115 0.01041,0.068 0.0041,0.0778 -0.02883,0.0431 -0.0118,-0.0197 -0.02036,0.0186 -0.109353,-0.005 0.02329,0.0194 -0.02737,0.0706 -0.0041,0.0108 -0.01474,0.0193 -0.0158,0.0309 -8.14e-4,0.008 0.0057,0.018 0.0057,0.0273 6.51e-4,0.0294 -0.01294,0.0531 -0.036,0.0669 0.06842,0.0852 0.03356,0.044 0.115219,0.13497 0.06931,0.0773 0.105571,0.11288 0.116537,0.22098 0.02615,0.0682 0.0602,0.12976 0.06214,0.20555 -0.0066,0.0314 -0.01099,0.06 -0.0066,0.0921 -0.01294,0.0341 -0.0127,0.0731 -0.01816,0.10912 -0.0082,0.0636 -0.01946,0.12713 -0.01898,0.1917 -0.0057,0.023 -0.0237,0.06 -0.01931,0.0843 0.0032,0.018 0.01507,0.0329 0.01915,0.0506 0.0024,0.011 0.0048,0.0829 0.0048,0.0941 0.0024,0.0838 -0.01922,0.1681 2.11e-4,0.25099 0.0099,0.0615 0.03038,0.12276 0.02582,0.18561 0.0082,0.0435 0.02541,0.0814 0.03739,0.12318 -1.88e-4,0.003 -0.0016,0.0252 -0.0041,0.0261 -0.02573,0.01 -0.08113,-0.0358 -0.0531,0.0302 0.0066,0.0181 0.0016,0.0306 0.0066,0.0481 0.0073,0.0304 0.03128,0.0517 0.03933,0.0817 0.02223,0.0589 0.04203,0.11878 0.07307,0.17323 0.02875,0.0509 0.03242,0.10797 0.04765,0.16489 0.01441,0.0636 0.03584,0.12778 0.06907,0.18236 0.03877,0.0808 0.05164,0.1637 0.05881,0.25385 0.01963,0.10416 0.0093,0.15677 -0.0404,0.24621 -0.03845,0.098 -0.07111,0.19925 -0.104816,0.29941 -0.03347,0.10321 -0.05009,0.21275 -0.10236,0.30803 -0.0347,0.0851 -0.09256,0.15149 -0.146829,0.22228 -0.02126,0.0178 -0.04626,0.031 -0.06418,0.0526 -0.02435,0.0293 -0.02419,0.0763 -0.06264,0.0928 -0.03413,0.0248 -0.02973,0.0173 -0.06662,0.0282 -0.01393,0.004 -0.02215,0.0225 -0.03633,0.0255 -0.01336,0.003 -0.02705,-0.002 -0.04056,-0.004 -0.04032,0.0165 -0.09074,0.0141 -0.116367,0.0566 -0.01149,0.029 -0.01687,0.0589 -0.03038,0.0872 -0.03136,0.0458 -0.03714,0.09 -0.02378,0.14427 -0.0073,0.0567 8.14e-4,-0.023 0.0024,0.0447 6.52e-4,0.0256 -0.01393,0.0517 -0.01523,0.0772 8.15e-4,0.0114 0.0016,0.0287 0.0048,0.0396 0.0032,0.01 0.0114,0.0171 0.0118,0.0271 8.14e-4,0.0173 -0.02875,0.0443 -0.02174,0.065 -0.0083,0.0473 -0.01085,0.0972 -0.0057,0.14481 -0.01041,0.0521 -0.01466,0.10574 -0.0294,0.15656 -0.01597,0.0458 -0.02875,0.0915 -0.03633,0.14 -0.0032,0.0433 -0.0032,-7e-4 0.01294,0.0522 0.0024,0.007 4.31e-4,0.0151 0.0016,0.0226 0.0048,0.0275 0.01743,0.0526 0.0092,0.0815 -0.0057,0.0567 -0.0083,0.11363 -0.0123,0.17051 0.0032,0.0681 0.0041,0.13854 0.02028,0.2042 0.0024,0.008 0.02199,0.0739 0.02509,0.0819 0.0066,0.0166 0.01801,0.0311 0.02215,0.0487 0.0094,0.0393 -0.01711,0.0845 -0.0057,0.12412 0.0087,0.0983 0.02867,0.19565 0.01987,0.29511 0.0024,0.10363 -0.0041,0.20747 0.0016,0.31115 0.01417,0.12057 0.02615,0.24142 0.04161,0.3618 0.02045,0.10373 0.04529,0.20638 0.05644,0.31197 0.01156,0.0384 0.02517,0.0876 0.0118,0.12862 -0.0032,0.01 -0.01279,0.016 -0.01597,0.0258 -0.0032,0.0106 -0.0024,0.0222 -0.0032,0.0334 -0.02403,0.0335 -0.01096,0.0174 -0.03942,0.0481 -0.02607,0.0337 -0.04032,0.0776 -0.07371,0.10656 -0.03942,0.075 -0.01547,0.12358 -0.01311,0.20467 -0.01474,0.0631 -0.0073,0.12136 0.0158,0.1817 0.02036,0.0705 -0.0066,0.0421 -0.009,0.0769 -0.0024,0.0418 0.01564,8.9e-4 -4.32e-4,0.0309 -0.0082,0.0146 -0.01832,0.0588 -0.01995,0.0608 -0.0041,0.005 -0.01255,0.005 -0.01645,0.0107 -0.0032,0.004 -0.0024,0.0117 -0.0041,0.0174 0.01612,0.0611 0.0277,0.1269 0.06378,0.17794 0.03461,0.0613 0.05465,0.12977 0.09463,0.18736 0,0 -0.178708,-0.0911 -0.178708,-0.0911 z" />
    <path
       style="fill:#d40000;fill-opacity:1;fill-rule:nonzero;stroke:none;stroke-width:0.224358"
       id="path15"
       d="m 59.204978,157.56047 c -0.04178,0.13492 -0.03771,0.28003 -0.04545,0.42071 -0.0024,0.10173 0.01156,0.20344 0.0041,0.30489 0.0024,0.0717 -0.0048,0.14047 -0.01727,0.21074 -0.0154,0.11394 -0.04626,0.23541 6.51e-4,0.34224 1.06e-4,0.0939 -0.01165,0.12587 0.02671,0.2115 0.03233,0.051 0.03722,0.10088 0.07175,0.14416 0.03136,0.0334 0.06923,0.0565 0.108717,0.0747 0.02183,0.015 0.04268,0.0316 0.06019,0.0514 -2.092849,-1.31594 -0.237872,-0.12383 -0.0505,-0.004 0.01539,0.0561 0.01801,0.11933 0.02859,0.1782 0.02826,0.0828 0.0492,0.16935 0.08129,0.25032 0.02542,0.0844 0.03575,0.17278 0.04765,0.26035 0.0211,0.14589 0.01825,0.29456 0.03242,0.44158 0.0041,0.1506 -0.03363,0.29905 -0.05148,0.44816 -0.01751,0.12896 -0.02867,0.25835 -0.03185,0.3886 0.03177,0.10014 0.0032,0.19874 -0.02297,0.29629 -0.03689,0.16828 -0.109647,0.32137 -0.178936,0.47595 -0.05848,0.15576 -0.134351,0.30185 -0.204576,0.45153 -0.0082,0.0602 -0.01636,0.17154 0.03315,0.2191 0.01687,0.0162 0.0417,0.0181 0.0623,0.0279 0.338951,0.2029 0.764663,0.4974 -0.798089,-0.50811 -0.0347,-0.0223 0.07193,0.04 0.108059,0.0595 0.06915,0.0373 0.138897,0.0733 0.208234,0.1102 0.89547,0.50186 1.167185,0.38145 1.189168,1.18785 -0.01507,0.31711 -0.128575,0.6106 -0.227585,0.90497 -0.07452,0.25624 -0.189973,0.49152 -0.292476,0.7346 -0.06997,0.14395 -0.09876,0.30766 -0.167639,0.45113 -0.05482,0.14749 -0.08284,0.30307 -0.109778,0.45853 -0.02623,0.16686 -0.05376,0.33345 -0.08097,0.50019 -0.01336,0.12673 -0.01946,0.25504 -0.01678,0.38256 -0.0082,0.13476 -0.0024,0.26888 0.0057,0.40338 0.0066,0.11077 0.0057,0.21359 0.07053,0.30199 0.0404,0.0607 0.06223,0.13249 0.101823,0.19341 0.0623,0.0547 0.116913,0.11393 0.151487,0.1929 0.05034,0.12739 0.105495,0.2517 0.133358,0.38747 -2.2e-4,0.1839 0.02297,0.36497 0.01653,0.54894 -0.02117,0.2182 -0.09083,0.42536 -0.128616,0.64167 -0.02281,0.15909 -0.05652,0.31575 -0.07403,0.47575 -0.01165,0.15643 0.0114,0.31274 0.04185,0.46522 0.0584,0.21238 0.08755,0.43155 0.120031,0.64984 0.04195,0.22929 0.04537,0.46291 0.04585,0.69566 -0.01063,0.22413 -1.5e-5,0.44819 -5.6e-5,0.67249 0.0048,0.2824 0.0057,0.56383 0.01742,0.84613 -0.0048,0.0417 -0.0082,0.0839 -0.01556,0.12523 -0.0435,0.24599 -0.01384,-0.0197 -0.04537,0.24141 -0.01597,0.13254 -0.01564,0.263 -0.03446,0.39524 -0.02957,0.25589 -0.06736,0.50982 -0.102788,0.76443 -0.06002,0.23953 -0.03991,0.48041 0.01915,0.71671 0.03657,0.16043 0.141966,0.28332 0.182259,0.44143 0.03005,0.25112 0.03771,0.50141 -0.02566,0.74632 -0.0505,0.23304 -0.135532,0.45433 -0.200033,0.68286 -0.05668,0.1464 -0.07754,0.29675 -0.05986,0.45371 0.03095,0.1426 0.07013,0.28168 0.09988,0.42443 0.02053,0.1542 0.06182,0.30317 0.0923,0.45534 0.02729,0.17434 0.02363,0.35133 0.04414,0.52661 0.0073,0.12494 0.02989,0.24632 0.05441,0.36822 0.01369,0.0869 0.02908,0.17326 0.04692,0.25917 0.0073,0.0733 0.04496,0.1364 0.05482,0.2085 0.0057,0.0921 0.0041,0.184 0.0048,0.27619 0.01156,0.0665 -0.04317,0.0885 -0.05775,0.14346 -0.0092,0.0347 -0.0123,0.071 -0.02045,0.10594 -0.03111,0.12361 0.01149,0.23848 -0.120635,0.29229 -0.05807,0.0998 -0.136573,0.18371 -0.235681,0.23251 -0.02493,0.0463 -0.06158,0.0809 -0.09753,0.11657 0,0 -0.05538,-0.0371 -0.05538,-0.0371 v 0 c 0.03567,-0.0352 0.07209,-0.0691 0.09672,-0.11511 -1.62e-4,-0.11996 0.05702,-0.20367 0.09562,-0.31362 -0.05082,-0.12349 -0.01547,-0.23709 -0.02435,-0.36765 -0.0066,-0.11188 -0.02134,-0.2088 -0.05074,-0.31561 -0.0024,-0.0923 -0.0083,-0.18674 -0.03119,-0.27596 -0.02371,-0.073 -0.04512,-0.14639 -0.07225,-0.21796 -0.01979,-0.0857 -0.02729,-0.1734 -0.0452,-0.2597 -0.02402,-0.1209 -0.03413,-0.24378 -0.03356,-0.36763 0.0032,-0.17444 -0.01628,-0.34859 -0.05066,-0.51897 -0.0347,-0.157 -0.08204,-0.31036 -0.116326,-0.46745 -0.03225,-0.14375 -0.07273,-0.28574 -0.09485,-0.43175 -0.0084,-0.16448 0.02345,-0.31962 0.07941,-0.47277 0.08188,-0.21541 0.1704,-0.42968 0.231918,-0.65277 0.01873,-0.25713 0.01074,-0.51753 -0.07273,-0.76231 -0.06541,-0.14861 -0.159364,-0.28293 -0.176933,-0.45138 -0.02395,-0.24915 -0.04977,-0.49716 -0.02907,-0.74831 0.03689,-0.25554 0.08522,-0.51208 0.0707,-0.77198 -0.02606,-0.29226 -0.04032,-0.58413 -0.110119,-0.86982 -0.0066,-0.28762 -0.02428,-0.57352 -0.04423,-0.86037 -0.01604,-0.23063 -0.01832,-0.46164 -0.03747,-0.69202 -0.01939,-0.23442 -0.04854,-0.46767 -0.08416,-0.69985 -0.04431,-0.23 -0.109396,-0.45065 -0.176957,-0.67359 -0.04089,-0.17487 -0.10246,-0.35532 -0.07607,-0.53744 0.03135,-0.15462 0.07331,-0.30657 0.112791,-0.45891 0.04675,-0.21472 0.06622,-0.43096 0.06736,-0.65173 0.0032,-0.17657 0.0057,-0.35955 -0.0602,-0.52452 -0.05368,-0.13563 -0.116375,-0.26723 -0.204201,-0.38114 -0.04846,-0.0578 -0.09501,-0.11447 -0.119404,-0.1894 -0.02786,-0.0652 -0.07452,-0.14553 -0.05572,-0.21793 0.05498,-0.0648 0.03299,-0.17959 0.04357,-0.26141 0.0024,-0.13849 -0.0066,-0.27575 -0.01063,-0.41388 0.01074,-0.12795 0.02183,-0.25571 0.04317,-0.3824 0.01946,-0.17209 0.04032,-0.34389 0.04903,-0.51716 0.01474,-0.16909 0.04179,-0.33632 0.09799,-0.49567 0.03836,-0.16091 0.117572,-0.31212 0.193393,-0.45569 0.134579,-0.21485 0.243012,-0.44936 0.332648,-0.68991 0.100278,-0.28036 0.198459,-0.57142 0.180312,-0.87713 -0.01238,-0.12054 -0.02288,-0.23887 -0.09429,-0.33882 -0.01825,-0.0256 -0.09105,-0.0823 -0.06475,-0.0669 0.155048,0.0906 1.236385,0.76674 0.793463,0.48991 -0.512374,-0.26659 -1.117453,-0.46248 -1.484569,-0.93858 -0.03527,-0.16356 0.106054,-0.1434 0.194851,-0.22855 0.08343,-0.1378 0.175036,-0.27054 0.242589,-0.41863 0.06434,-0.15048 0.120765,-0.3038 0.163013,-0.46328 0.01597,-0.0917 -0.0041,-0.19627 0.04951,-0.27319 0.03389,-0.11532 0.09212,-0.2224 0.102317,-0.34553 0.02011,-0.14317 0.04684,-0.28539 0.0527,-0.43037 0.0032,-0.14622 -0.01124,-0.29062 -0.04146,-0.43324 -0.01865,-0.0889 -0.04471,-0.17476 -0.06328,-0.26342 6.43e-4,-0.0763 -0.03771,-0.15046 -0.0417,-0.22719 -0.01825,-0.0559 -0.03315,-0.12495 -0.08431,-0.1539 0.219376,0.13796 0.438751,0.27594 0.658126,0.41391 -0.0057,-0.003 -0.01939,-0.0106 -0.01687,-0.004 0.0024,0.005 0.03877,0.0478 0.03755,0.047 -0.299375,-0.18182 -0.595077,-0.37064 -0.89261,-0.55596 -0.03014,-0.0212 -0.06166,-0.0401 -0.08843,-0.0666 -0.02549,-0.0367 -0.04668,-0.0664 -0.02769,-0.11155 0.0048,-0.0618 0.0048,-0.10405 0.06403,-0.12964 0.05107,-0.0367 0.08623,-0.0838 0.134213,-0.12467 0.08993,-0.038 0.108432,-0.16808 0.165634,-0.24824 0.02387,-0.0566 0.04618,-0.11384 0.06092,-0.17413 0.01483,-0.092 0.03013,-0.18399 0.04187,-0.27675 0.01483,-0.14004 0.05717,-0.2745 0.05938,-0.4156 0,0 0.36609,0.20927 0.36609,0.20927 z" />
    <path
       style="fill:#d40000;fill-opacity:1;fill-rule:nonzero;stroke:none;stroke-width:0.224358"
       id="path17"
       d="m 60.001307,178.93571 c -0.146273,0.0668 -0.279224,0.16264 -0.399117,0.27452 -0.106426,0.10395 -0.198916,0.22106 -0.284152,0.34536 -0.0964,0.0996 -0.15034,0.22813 -0.216077,0.35056 -0.03665,0.0988 -0.08781,0.17583 -0.167965,0.23719 -0.137536,0.15409 -0.199127,0.13444 -0.397358,0.0874 0,0 -0.05588,-0.0364 -0.05588,-0.0364 v 0 c -0.119348,-0.16701 -0.157775,-0.21254 -0.01873,-0.36301 0.04569,-0.0818 0.105101,-0.1521 0.158232,-0.22819 0.0707,-0.12131 0.140826,-0.24339 0.221062,-0.35758 0.10029,-0.11911 0.210734,-0.22957 0.325309,-0.33211 0.128462,-0.10279 0.264376,-0.19391 0.39748,-0.28941 0,0 0.437172,0.31157 0.437172,0.31157 z" />
    <path
       style="fill:#d40000;fill-opacity:1;fill-rule:nonzero;stroke:none;stroke-width:0.224358"
       id="path19"
       d="m 59.065113,137.82928 c 0.03665,-0.22863 -0.02003,-0.45782 -0.06434,-0.68026 -0.03828,-0.20414 -0.08055,-0.40999 -0.164757,-0.59828 -0.05116,-0.1223 -0.117962,-0.23533 -0.189158,-0.34476 -0.03763,-0.0509 -0.06646,-0.10656 -0.10658,-0.15527 -0.06158,-0.0792 -0.105012,-0.17138 -0.153173,-0.26029 -0.08495,-0.14922 -0.126418,-0.31949 -0.196862,-0.4761 -0.08541,-0.1564 -0.125042,-0.33379 -0.156254,-0.51033 -0.0092,-0.0527 -0.0281,-0.10406 -0.02916,-0.15769 -8.15e-4,-0.0478 0.0154,-0.0942 0.02314,-0.14134 0.03828,-0.29341 0.166132,-0.55967 0.281367,-0.82449 0.127917,-0.23596 0.244633,-0.47835 0.359501,-0.7219 0.164512,-0.32483 0.171678,-0.59616 0.100519,-0.95124 -0.08579,-0.35689 -0.280504,-0.6326 -0.539334,-0.86158 -0.256907,-0.18509 -0.273245,-0.20028 -0.168453,-0.52801 0.124797,-0.34451 0.248298,-0.69541 0.297706,-1.063 0.02134,-0.18192 0.05514,-0.35527 0.0082,-0.53423 -0.02297,-0.14618 -0.06451,-0.27184 -0.133121,-0.3995 -0.09622,-0.17006 -0.0845,-0.36476 -0.08166,-0.55561 0.01678,-0.23542 0.08627,-0.46066 0.133471,-0.69005 0.04081,-0.20156 0.07476,-0.40493 0.10407,-0.60886 0.03477,-0.18309 0.04968,-0.36817 0.05449,-0.55476 -0.0032,-0.30825 -0.0087,-0.61568 -0.0096,-0.924 -0.0082,-0.34794 -0.03894,-0.69373 -0.03909,-1.042 0.0016,-0.30913 -0.0066,-0.61833 -2.21e-4,-0.92745 0.03119,-0.35491 0.06508,-0.7086 0.08031,-1.065 0.03527,-0.16209 -0.03005,-0.39877 0.04765,-0.54402 0.107753,-0.0874 0.23349,-0.034 0.354598,-0.0106 0,0 0.05832,0.0314 0.05832,0.0314 v 0 c 0.139059,0.12358 0.287859,0.23195 0.364478,0.41453 0.04471,0.17931 -0.0347,0.36786 -0.04903,0.54838 -0.05514,0.34815 -0.100618,0.69759 -0.085,1.05222 3.3e-5,0.30822 -0.0041,0.61621 -0.0032,0.92437 1.45e-4,0.33415 -0.02965,0.66563 -0.03819,0.99943 -0.0016,0.30359 -0.0032,0.60584 -0.02753,0.90865 -0.01531,0.1858 -0.04032,0.37067 -0.07941,0.55242 -0.04292,0.19892 -0.09433,0.39446 -0.14094,0.59233 -0.05872,0.2209 -0.128014,0.44241 -0.125993,0.67519 -0.0032,0.18572 0.02084,0.36543 0.113539,0.52573 0.09657,0.16413 0.216819,0.31424 0.280138,0.49825 0.05017,0.20082 0.0832,0.39676 0.0215,0.60169 -0.0439,0.17451 -0.07257,0.3506 -0.111072,0.52629 -0.04187,0.19106 -0.106043,0.37772 -0.108936,0.57703 0.0016,0.26246 0.03649,0.2525 0.191153,0.42296 0.21374,0.26084 0.383211,0.55083 0.463259,0.89331 0.06997,0.36161 0.08167,0.71205 -0.05196,1.06009 -0.117149,0.24682 -0.278444,0.46365 -0.415735,0.69742 -0.162793,0.21695 -0.303016,0.4545 -0.378315,0.72423 -0.08214,0.46451 0.04064,-0.16148 -0.07232,0.23274 -0.03714,0.12961 8.14e-4,0.27178 -0.0032,0.40311 0.03795,0.16186 0.108224,0.31185 0.183277,0.45713 0.05686,0.0936 0.120888,0.18055 0.185957,0.26725 0.03413,0.0479 0.06557,0.0991 0.08775,0.15492 0.05857,0.11865 0.128585,0.23027 0.178896,0.35366 0.03584,0.19107 0.06426,0.38367 0.102656,0.57424 0.0444,0.24461 0.08455,0.49033 0.138236,0.73254 0,0 -0.491033,-0.27117 -0.491033,-0.27117 z" />
  </g>
</svg>
